<svg xmlns="http://www.w3.org/2000/svg" xmlns:xlink="http://www.w3.org/1999/xlink" width="2000" zoomAndPan="magnify" viewBox="0 0 1500 1499.999933" height="2000" preserveAspectRatio="xMidYMid meet" version="1.0"><defs><clipPath id="a7e463d36e"><path d="M 291.757812 554.101562 L 488 554.101562 L 488 945.601562 L 291.757812 945.601562 Z M 291.757812 554.101562 " clip-rule="nonzero"/></clipPath><clipPath id="e80786868e"><path d="M 532 554.101562 L 728 554.101562 L 728 945.601562 L 532 945.601562 Z M 532 554.101562 " clip-rule="nonzero"/></clipPath><clipPath id="2b9d3e610a"><path d="M 772 554.101562 L 968 554.101562 L 968 945.601562 L 772 945.601562 Z M 772 554.101562 " clip-rule="nonzero"/></clipPath><clipPath id="e5b3c98eee"><path d="M 1012 554.101562 L 1208.257812 554.101562 L 1208.257812 945.601562 L 1012 945.601562 Z M 1012 554.101562 " clip-rule="nonzero"/></clipPath></defs><rect x="-150" width="1800" fill="#ffffff" y="-149.999993" height="1799.99992" fill-opacity="1"/><rect x="-150" width="1800" fill="#ffffff" y="-149.999993" height="1799.99992" fill-opacity="1"/><g clip-path="url(#a7e463d36e)"><path fill="#e48db7" d="M 389.5 554.367188 L 389.546875 554.367188 C 391.148438 554.367188 392.75 554.40625 394.347656 554.484375 C 395.945312 554.5625 397.542969 554.679688 399.132812 554.839844 C 400.726562 554.996094 402.316406 555.191406 403.898438 555.425781 C 405.480469 555.660156 407.058594 555.933594 408.625 556.246094 C 410.195312 556.558594 411.757812 556.910156 413.308594 557.296875 C 414.863281 557.6875 416.40625 558.113281 417.9375 558.578125 C 419.46875 559.042969 420.988281 559.542969 422.492188 560.082031 C 424 560.625 425.492188 561.199219 426.972656 561.8125 C 428.449219 562.421875 429.914062 563.070312 431.359375 563.757812 C 432.804688 564.441406 434.234375 565.160156 435.648438 565.914062 C 437.058594 566.667969 438.449219 567.457031 439.824219 568.28125 C 441.195312 569.101562 442.546875 569.957031 443.878906 570.847656 C 445.207031 571.738281 446.515625 572.660156 447.800781 573.613281 C 449.085938 574.566406 450.347656 575.550781 451.585938 576.566406 C 452.824219 577.582031 454.035156 578.625 455.222656 579.699219 C 456.40625 580.773438 457.566406 581.878906 458.695312 583.007812 C 459.828125 584.140625 460.933594 585.300781 462.007812 586.484375 C 463.082031 587.671875 464.125 588.882812 465.140625 590.121094 C 466.15625 591.359375 467.140625 592.617188 468.09375 593.902344 C 469.046875 595.191406 469.96875 596.496094 470.859375 597.828125 C 471.746094 599.160156 472.605469 600.511719 473.425781 601.882812 C 474.25 603.257812 475.039062 604.648438 475.792969 606.058594 C 476.546875 607.472656 477.265625 608.898438 477.949219 610.347656 C 478.632812 611.792969 479.28125 613.257812 479.894531 614.734375 C 480.507812 616.214844 481.082031 617.707031 481.621094 619.214844 C 482.160156 620.71875 482.664062 622.238281 483.128906 623.769531 C 483.59375 625.300781 484.019531 626.84375 484.410156 628.398438 C 484.796875 629.949219 485.148438 631.511719 485.460938 633.078125 C 485.773438 634.648438 486.046875 636.226562 486.28125 637.808594 C 486.515625 639.390625 486.710938 640.980469 486.867188 642.574219 C 487.023438 644.164062 487.144531 645.761719 487.222656 647.359375 C 487.300781 648.957031 487.339844 650.558594 487.339844 652.15625 L 487.339844 847.839844 C 487.339844 849.4375 487.300781 851.039062 487.222656 852.636719 C 487.144531 854.234375 487.023438 855.832031 486.867188 857.421875 C 486.710938 859.015625 486.515625 860.605469 486.28125 862.1875 C 486.046875 863.769531 485.773438 865.347656 485.460938 866.917969 C 485.148438 868.484375 484.796875 870.046875 484.410156 871.597656 C 484.019531 873.152344 483.59375 874.695312 483.128906 876.226562 C 482.664062 877.757812 482.160156 879.277344 481.621094 880.78125 C 481.082031 882.289062 480.507812 883.78125 479.894531 885.261719 C 479.28125 886.738281 478.632812 888.203125 477.949219 889.648438 C 477.265625 891.09375 476.546875 892.523438 475.792969 893.9375 C 475.039062 895.347656 474.25 896.738281 473.425781 898.113281 C 472.605469 899.484375 471.746094 900.835938 470.859375 902.167969 C 469.96875 903.5 469.046875 904.804688 468.09375 906.09375 C 467.140625 907.378906 466.15625 908.636719 465.140625 909.875 C 464.125 911.113281 463.082031 912.324219 462.007812 913.511719 C 460.933594 914.695312 459.828125 915.855469 458.695312 916.988281 C 457.566406 918.117188 456.40625 919.222656 455.222656 920.296875 C 454.035156 921.371094 452.824219 922.414062 451.585938 923.429688 C 450.347656 924.445312 449.089844 925.429688 447.800781 926.382812 C 446.515625 927.335938 445.207031 928.257812 443.878906 929.148438 C 442.546875 930.039062 441.195312 930.894531 439.824219 931.714844 C 438.449219 932.539062 437.058594 933.328125 435.648438 934.082031 C 434.234375 934.835938 432.804688 935.554688 431.359375 936.238281 C 429.914062 936.925781 428.449219 937.574219 426.972656 938.183594 C 425.492188 938.796875 424 939.375 422.492188 939.914062 C 420.988281 940.453125 419.46875 940.953125 417.9375 941.417969 C 416.40625 941.882812 414.863281 942.308594 413.308594 942.699219 C 411.757812 943.085938 410.195312 943.4375 408.625 943.75 C 407.058594 944.0625 405.480469 944.335938 403.898438 944.570312 C 402.316406 944.804688 400.726562 945 399.132812 945.15625 C 397.542969 945.316406 395.945312 945.433594 394.347656 945.511719 C 392.75 945.589844 391.148438 945.628906 389.546875 945.628906 L 389.5 945.628906 C 387.898438 945.628906 386.300781 945.589844 384.699219 945.511719 C 383.101562 945.433594 381.507812 945.316406 379.914062 945.15625 C 378.320312 945 376.734375 944.804688 375.148438 944.570312 C 373.566406 944.335938 371.992188 944.0625 370.421875 943.75 C 368.851562 943.4375 367.289062 943.085938 365.738281 942.699219 C 364.1875 942.308594 362.644531 941.882812 361.113281 941.417969 C 359.582031 940.953125 358.0625 940.453125 356.554688 939.914062 C 355.046875 939.371094 353.554688 938.796875 352.078125 938.183594 C 350.597656 937.570312 349.136719 936.925781 347.6875 936.238281 C 346.242188 935.554688 344.8125 934.835938 343.402344 934.082031 C 341.988281 933.328125 340.597656 932.539062 339.226562 931.714844 C 337.851562 930.894531 336.5 930.035156 335.167969 929.148438 C 333.839844 928.257812 332.53125 927.335938 331.246094 926.382812 C 329.960938 925.429688 328.699219 924.445312 327.460938 923.429688 C 326.222656 922.414062 325.011719 921.371094 323.828125 920.296875 C 322.640625 919.222656 321.484375 918.117188 320.351562 916.988281 C 319.21875 915.855469 318.117188 914.695312 317.042969 913.511719 C 315.964844 912.324219 314.921875 911.113281 313.90625 909.875 C 312.890625 908.636719 311.90625 907.378906 310.953125 906.09375 C 310 904.804688 309.078125 903.5 308.1875 902.167969 C 307.300781 900.835938 306.445312 899.484375 305.621094 898.113281 C 304.796875 896.738281 304.011719 895.347656 303.253906 893.9375 C 302.5 892.523438 301.78125 891.09375 301.097656 889.648438 C 300.414062 888.203125 299.765625 886.738281 299.152344 885.261719 C 298.539062 883.78125 297.964844 882.289062 297.425781 880.78125 C 296.886719 879.277344 296.382812 877.757812 295.917969 876.226562 C 295.453125 874.695312 295.027344 873.152344 294.640625 871.597656 C 294.25 870.046875 293.898438 868.484375 293.585938 866.917969 C 293.277344 865.347656 293 863.769531 292.765625 862.1875 C 292.53125 860.605469 292.335938 859.015625 292.179688 857.421875 C 292.023438 855.832031 291.90625 854.234375 291.828125 852.636719 C 291.746094 851.039062 291.707031 849.4375 291.707031 847.839844 L 291.707031 652.15625 C 291.707031 650.558594 291.746094 648.957031 291.828125 647.359375 C 291.90625 645.761719 292.023438 644.164062 292.179688 642.574219 C 292.335938 640.980469 292.53125 639.390625 292.765625 637.808594 C 293 636.226562 293.277344 634.648438 293.585938 633.078125 C 293.898438 631.511719 294.25 629.949219 294.640625 628.398438 C 295.027344 626.84375 295.453125 625.300781 295.917969 623.769531 C 296.382812 622.238281 296.886719 620.71875 297.425781 619.214844 C 297.964844 617.707031 298.539062 616.214844 299.152344 614.734375 C 299.765625 613.257812 300.414062 611.792969 301.097656 610.347656 C 301.78125 608.902344 302.5 607.472656 303.253906 606.058594 C 304.011719 604.648438 304.796875 603.257812 305.621094 601.882812 C 306.445312 600.511719 307.300781 599.160156 308.1875 597.828125 C 309.078125 596.496094 310 595.191406 310.953125 593.902344 C 311.90625 592.617188 312.890625 591.359375 313.90625 590.121094 C 314.921875 588.882812 315.964844 587.671875 317.042969 586.484375 C 318.117188 585.300781 319.21875 584.140625 320.351562 583.007812 C 321.484375 581.878906 322.640625 580.773438 323.828125 579.699219 C 325.011719 578.625 326.222656 577.582031 327.460938 576.566406 C 328.699219 575.550781 329.960938 574.566406 331.246094 573.613281 C 332.53125 572.660156 333.839844 571.738281 335.167969 570.847656 C 336.5 569.960938 337.851562 569.101562 339.226562 568.28125 C 340.597656 567.457031 341.988281 566.667969 343.402344 565.914062 C 344.8125 565.160156 346.242188 564.441406 347.6875 563.757812 C 349.136719 563.070312 350.597656 562.421875 352.078125 561.8125 C 353.554688 561.199219 355.046875 560.625 356.554688 560.082031 C 358.0625 559.542969 359.582031 559.042969 361.113281 558.578125 C 362.644531 558.113281 364.1875 557.6875 365.738281 557.296875 C 367.289062 556.910156 368.851562 556.558594 370.421875 556.246094 C 371.992188 555.933594 373.566406 555.660156 375.148438 555.425781 C 376.734375 555.191406 378.320312 554.996094 379.914062 554.839844 C 381.507812 554.679688 383.101562 554.5625 384.699219 554.484375 C 386.300781 554.40625 387.898438 554.367188 389.5 554.367188 Z M 389.5 554.367188 " fill-opacity="1" fill-rule="nonzero"/></g><g clip-path="url(#e80786868e)"><path fill="#996880" d="M 629.8125 554.367188 L 629.863281 554.367188 C 631.464844 554.367188 633.0625 554.40625 634.660156 554.484375 C 636.261719 554.5625 637.855469 554.679688 639.449219 554.839844 C 641.042969 554.996094 642.628906 555.191406 644.210938 555.425781 C 645.796875 555.660156 647.371094 555.933594 648.941406 556.246094 C 650.511719 556.558594 652.074219 556.910156 653.625 557.296875 C 655.175781 557.6875 656.71875 558.113281 658.25 558.578125 C 659.78125 559.042969 661.300781 559.542969 662.808594 560.082031 C 664.316406 560.625 665.808594 561.199219 667.285156 561.8125 C 668.765625 562.421875 670.226562 563.070312 671.675781 563.757812 C 673.121094 564.441406 674.550781 565.160156 675.960938 565.914062 C 677.375 566.667969 678.765625 567.457031 680.136719 568.28125 C 681.511719 569.101562 682.863281 569.957031 684.191406 570.847656 C 685.523438 571.738281 686.832031 572.660156 688.117188 573.613281 C 689.402344 574.566406 690.664062 575.550781 691.902344 576.566406 C 693.136719 577.582031 694.351562 578.625 695.535156 579.699219 C 696.722656 580.773438 697.878906 581.878906 699.011719 583.007812 C 700.144531 584.140625 701.246094 585.300781 702.320312 586.484375 C 703.394531 587.671875 704.441406 588.882812 705.457031 590.121094 C 706.472656 591.359375 707.457031 592.617188 708.410156 593.902344 C 709.363281 595.191406 710.285156 596.496094 711.171875 597.828125 C 712.0625 599.160156 712.917969 600.511719 713.742188 601.882812 C 714.5625 603.257812 715.351562 604.648438 716.105469 606.058594 C 716.863281 607.472656 717.582031 608.898438 718.265625 610.347656 C 718.949219 611.792969 719.597656 613.257812 720.210938 614.734375 C 720.824219 616.214844 721.398438 617.707031 721.9375 619.214844 C 722.476562 620.71875 722.980469 622.238281 723.445312 623.769531 C 723.90625 625.300781 724.335938 626.84375 724.722656 628.398438 C 725.113281 629.949219 725.464844 631.511719 725.773438 633.078125 C 726.085938 634.648438 726.359375 636.226562 726.597656 637.808594 C 726.832031 639.390625 727.027344 640.980469 727.183594 642.574219 C 727.339844 644.164062 727.457031 645.761719 727.535156 647.359375 C 727.613281 648.957031 727.652344 650.558594 727.652344 652.15625 L 727.652344 847.839844 C 727.652344 849.4375 727.613281 851.039062 727.535156 852.636719 C 727.457031 854.234375 727.339844 855.832031 727.183594 857.421875 C 727.027344 859.015625 726.832031 860.605469 726.597656 862.1875 C 726.359375 863.769531 726.085938 865.347656 725.773438 866.917969 C 725.464844 868.484375 725.113281 870.046875 724.722656 871.597656 C 724.335938 873.152344 723.90625 874.695312 723.445312 876.226562 C 722.980469 877.757812 722.476562 879.277344 721.9375 880.78125 C 721.398438 882.289062 720.824219 883.78125 720.210938 885.261719 C 719.597656 886.738281 718.949219 888.203125 718.265625 889.648438 C 717.582031 891.09375 716.863281 892.523438 716.105469 893.9375 C 715.351562 895.347656 714.5625 896.738281 713.742188 898.113281 C 712.917969 899.484375 712.0625 900.835938 711.171875 902.167969 C 710.285156 903.5 709.363281 904.804688 708.410156 906.09375 C 707.457031 907.378906 706.472656 908.636719 705.457031 909.875 C 704.441406 911.113281 703.398438 912.324219 702.320312 913.511719 C 701.246094 914.695312 700.144531 915.855469 699.011719 916.988281 C 697.878906 918.117188 696.722656 919.222656 695.535156 920.296875 C 694.351562 921.371094 693.136719 922.414062 691.902344 923.429688 C 690.664062 924.445312 689.402344 925.429688 688.117188 926.382812 C 686.832031 927.335938 685.523438 928.257812 684.191406 929.148438 C 682.863281 930.039062 681.511719 930.894531 680.136719 931.714844 C 678.765625 932.539062 677.375 933.328125 675.960938 934.082031 C 674.550781 934.835938 673.121094 935.554688 671.675781 936.238281 C 670.226562 936.925781 668.765625 937.574219 667.285156 938.183594 C 665.808594 938.796875 664.316406 939.375 662.808594 939.914062 C 661.300781 940.453125 659.78125 940.953125 658.25 941.417969 C 656.71875 941.882812 655.175781 942.308594 653.625 942.699219 C 652.074219 943.085938 650.511719 943.4375 648.941406 943.75 C 647.371094 944.0625 645.796875 944.335938 644.210938 944.570312 C 642.628906 944.804688 641.042969 945 639.449219 945.15625 C 637.855469 945.316406 636.261719 945.433594 634.660156 945.511719 C 633.0625 945.589844 631.464844 945.628906 629.863281 945.628906 L 629.8125 945.628906 C 628.214844 945.628906 626.613281 945.589844 625.015625 945.511719 C 623.417969 945.433594 621.820312 945.316406 620.230469 945.15625 C 618.636719 945 617.046875 944.804688 615.464844 944.570312 C 613.882812 944.335938 612.304688 944.0625 610.734375 943.75 C 609.167969 943.4375 607.605469 943.085938 606.054688 942.699219 C 604.5 942.308594 602.957031 941.882812 601.425781 941.417969 C 599.894531 940.953125 598.375 940.453125 596.871094 939.914062 C 595.363281 939.371094 593.871094 938.796875 592.390625 938.183594 C 590.914062 937.570312 589.449219 936.925781 588.003906 936.238281 C 586.554688 935.554688 585.128906 934.835938 583.714844 934.082031 C 582.304688 933.328125 580.914062 932.539062 579.539062 931.714844 C 578.167969 930.894531 576.816406 930.035156 575.484375 929.148438 C 574.152344 928.257812 572.847656 927.335938 571.558594 926.382812 C 570.273438 925.429688 569.011719 924.445312 567.777344 923.429688 C 566.539062 922.414062 565.328125 921.371094 564.140625 920.296875 C 562.957031 919.222656 561.796875 918.117188 560.664062 916.988281 C 559.535156 915.855469 558.429688 914.695312 557.355469 913.511719 C 556.28125 912.324219 555.238281 911.113281 554.222656 909.875 C 553.207031 908.636719 552.222656 907.378906 551.269531 906.09375 C 550.316406 904.804688 549.394531 903.5 548.503906 902.167969 C 547.613281 900.835938 546.757812 899.484375 545.9375 898.113281 C 545.113281 896.738281 544.324219 895.347656 543.570312 893.9375 C 542.816406 892.523438 542.097656 891.09375 541.414062 889.648438 C 540.726562 888.203125 540.078125 886.738281 539.46875 885.261719 C 538.855469 883.78125 538.277344 882.289062 537.738281 880.78125 C 537.199219 879.277344 536.699219 877.757812 536.234375 876.226562 C 535.769531 874.695312 535.34375 873.152344 534.953125 871.597656 C 534.566406 870.046875 534.214844 868.484375 533.902344 866.917969 C 533.589844 865.347656 533.316406 863.769531 533.082031 862.1875 C 532.847656 860.605469 532.652344 859.015625 532.496094 857.421875 C 532.335938 855.832031 532.21875 854.234375 532.140625 852.636719 C 532.0625 851.039062 532.023438 849.4375 532.023438 847.839844 L 532.023438 652.15625 C 532.023438 650.558594 532.0625 648.957031 532.140625 647.359375 C 532.21875 645.761719 532.335938 644.164062 532.496094 642.574219 C 532.652344 640.980469 532.847656 639.390625 533.082031 637.808594 C 533.316406 636.226562 533.589844 634.648438 533.902344 633.078125 C 534.214844 631.511719 534.566406 629.949219 534.953125 628.398438 C 535.34375 626.84375 535.769531 625.300781 536.234375 623.769531 C 536.699219 622.238281 537.199219 620.71875 537.738281 619.214844 C 538.277344 617.707031 538.855469 616.214844 539.46875 614.734375 C 540.078125 613.257812 540.726562 611.792969 541.414062 610.347656 C 542.097656 608.902344 542.816406 607.472656 543.570312 606.058594 C 544.324219 604.648438 545.113281 603.257812 545.9375 601.882812 C 546.757812 600.511719 547.613281 599.160156 548.503906 597.828125 C 549.394531 596.496094 550.316406 595.191406 551.269531 593.902344 C 552.222656 592.617188 553.207031 591.359375 554.222656 590.121094 C 555.238281 588.882812 556.28125 587.671875 557.355469 586.484375 C 558.429688 585.300781 559.535156 584.140625 560.664062 583.007812 C 561.796875 581.878906 562.957031 580.773438 564.140625 579.699219 C 565.328125 578.625 566.539062 577.582031 567.777344 576.566406 C 569.011719 575.550781 570.273438 574.566406 571.558594 573.613281 C 572.847656 572.660156 574.152344 571.738281 575.484375 570.847656 C 576.816406 569.960938 578.167969 569.101562 579.539062 568.28125 C 580.914062 567.457031 582.304688 566.667969 583.714844 565.914062 C 585.128906 565.160156 586.554688 564.441406 588.003906 563.757812 C 589.449219 563.070312 590.914062 562.421875 592.390625 561.8125 C 593.871094 561.199219 595.363281 560.625 596.871094 560.082031 C 598.375 559.542969 599.894531 559.042969 601.425781 558.578125 C 602.957031 558.113281 604.5 557.6875 606.054688 557.296875 C 607.605469 556.910156 609.167969 556.558594 610.734375 556.246094 C 612.304688 555.933594 613.882812 555.660156 615.464844 555.425781 C 617.046875 555.191406 618.636719 554.996094 620.230469 554.839844 C 621.820312 554.679688 623.417969 554.5625 625.015625 554.484375 C 626.613281 554.40625 628.214844 554.367188 629.8125 554.367188 Z M 629.8125 554.367188 " fill-opacity="1" fill-rule="nonzero"/></g><g clip-path="url(#2b9d3e610a)"><path fill="#54457f" d="M 870.128906 554.367188 L 870.179688 554.367188 C 871.777344 554.367188 873.378906 554.40625 874.976562 554.484375 C 876.574219 554.5625 878.171875 554.679688 879.765625 554.839844 C 881.355469 554.996094 882.945312 555.191406 884.527344 555.425781 C 886.109375 555.660156 887.6875 555.933594 889.257812 556.246094 C 890.828125 556.558594 892.386719 556.910156 893.941406 557.296875 C 895.492188 557.6875 897.035156 558.113281 898.566406 558.578125 C 900.097656 559.042969 901.617188 559.542969 903.125 560.082031 C 904.628906 560.625 906.121094 561.199219 907.601562 561.8125 C 909.082031 562.421875 910.542969 563.070312 911.988281 563.757812 C 913.4375 564.441406 914.867188 565.160156 916.277344 565.914062 C 917.6875 566.667969 919.082031 567.457031 920.453125 568.28125 C 921.824219 569.101562 923.175781 569.957031 924.507812 570.847656 C 925.839844 571.738281 927.148438 572.660156 928.433594 573.613281 C 929.71875 574.566406 930.980469 575.550781 932.214844 576.566406 C 933.453125 577.582031 934.664062 578.625 935.851562 579.699219 C 937.035156 580.773438 938.195312 581.878906 939.328125 583.007812 C 940.457031 584.140625 941.5625 585.300781 942.636719 586.484375 C 943.710938 587.671875 944.757812 588.882812 945.773438 590.121094 C 946.789062 591.359375 947.773438 592.617188 948.726562 593.902344 C 949.679688 595.191406 950.597656 596.496094 951.488281 597.828125 C 952.378906 599.160156 953.234375 600.511719 954.054688 601.882812 C 954.878906 603.257812 955.667969 604.648438 956.421875 606.058594 C 957.175781 607.472656 957.894531 608.898438 958.582031 610.347656 C 959.265625 611.792969 959.914062 613.257812 960.523438 614.734375 C 961.136719 616.214844 961.714844 617.707031 962.253906 619.214844 C 962.792969 620.71875 963.292969 622.238281 963.757812 623.769531 C 964.222656 625.300781 964.648438 626.84375 965.039062 628.398438 C 965.425781 629.949219 965.777344 631.511719 966.089844 633.078125 C 966.402344 634.648438 966.675781 636.226562 966.910156 637.808594 C 967.144531 639.390625 967.339844 640.980469 967.5 642.574219 C 967.65625 644.164062 967.773438 645.761719 967.851562 647.359375 C 967.929688 648.957031 967.96875 650.558594 967.96875 652.15625 L 967.96875 847.839844 C 967.96875 849.4375 967.929688 851.039062 967.851562 852.636719 C 967.773438 854.234375 967.65625 855.832031 967.5 857.421875 C 967.339844 859.015625 967.144531 860.605469 966.910156 862.1875 C 966.675781 863.769531 966.402344 865.347656 966.089844 866.917969 C 965.777344 868.484375 965.425781 870.046875 965.039062 871.597656 C 964.648438 873.152344 964.222656 874.695312 963.757812 876.226562 C 963.292969 877.757812 962.792969 879.277344 962.253906 880.78125 C 961.714844 882.289062 961.136719 883.78125 960.523438 885.261719 C 959.914062 886.738281 959.265625 888.203125 958.582031 889.648438 C 957.894531 891.09375 957.175781 892.523438 956.421875 893.9375 C 955.667969 895.347656 954.878906 896.738281 954.054688 898.113281 C 953.234375 899.484375 952.378906 900.835938 951.488281 902.167969 C 950.597656 903.5 949.679688 904.804688 948.726562 906.09375 C 947.773438 907.378906 946.789062 908.636719 945.773438 909.875 C 944.757812 911.113281 943.710938 912.324219 942.636719 913.511719 C 941.5625 914.695312 940.457031 915.855469 939.328125 916.988281 C 938.195312 918.117188 937.035156 919.222656 935.851562 920.296875 C 934.664062 921.371094 933.453125 922.414062 932.214844 923.429688 C 930.980469 924.445312 929.71875 925.429688 928.433594 926.382812 C 927.148438 927.335938 925.839844 928.257812 924.507812 929.148438 C 923.175781 930.039062 921.824219 930.894531 920.453125 931.714844 C 919.082031 932.539062 917.6875 933.328125 916.277344 934.082031 C 914.867188 934.835938 913.4375 935.554688 911.988281 936.238281 C 910.542969 936.925781 909.082031 937.574219 907.601562 938.183594 C 906.121094 938.796875 904.628906 939.375 903.125 939.914062 C 901.617188 940.453125 900.097656 940.953125 898.566406 941.417969 C 897.035156 941.882812 895.492188 942.308594 893.941406 942.699219 C 892.386719 943.085938 890.828125 943.4375 889.257812 943.75 C 887.6875 944.0625 886.109375 944.335938 884.527344 944.570312 C 882.945312 944.804688 881.355469 945 879.765625 945.15625 C 878.171875 945.316406 876.574219 945.433594 874.976562 945.511719 C 873.378906 945.589844 871.777344 945.628906 870.179688 945.628906 L 870.128906 945.628906 C 868.527344 945.628906 866.929688 945.589844 865.332031 945.511719 C 863.730469 945.433594 862.136719 945.316406 860.542969 945.15625 C 858.953125 945 857.363281 944.804688 855.78125 944.570312 C 854.195312 944.335938 852.621094 944.0625 851.050781 943.75 C 849.480469 943.4375 847.921875 943.085938 846.367188 942.699219 C 844.816406 942.308594 843.273438 941.882812 841.742188 941.417969 C 840.210938 940.953125 838.691406 940.453125 837.183594 939.914062 C 835.675781 939.371094 834.183594 938.796875 832.707031 938.183594 C 831.226562 937.570312 829.765625 936.925781 828.316406 936.238281 C 826.871094 935.554688 825.441406 934.835938 824.03125 934.082031 C 822.621094 933.328125 821.226562 932.539062 819.855469 931.714844 C 818.480469 930.894531 817.128906 930.035156 815.800781 929.148438 C 814.46875 928.257812 813.160156 927.335938 811.875 926.382812 C 810.589844 925.429688 809.328125 924.445312 808.089844 923.429688 C 806.855469 922.414062 805.644531 921.371094 804.457031 920.296875 C 803.269531 919.222656 802.113281 918.117188 800.980469 916.988281 C 799.847656 915.855469 798.746094 914.695312 797.671875 913.511719 C 796.597656 912.324219 795.550781 911.113281 794.535156 909.875 C 793.519531 908.636719 792.535156 907.378906 791.582031 906.09375 C 790.628906 904.804688 789.707031 903.5 788.820312 902.167969 C 787.929688 900.835938 787.074219 899.484375 786.25 898.113281 C 785.429688 896.738281 784.640625 895.347656 783.886719 893.9375 C 783.132812 892.523438 782.410156 891.09375 781.726562 889.648438 C 781.042969 888.203125 780.394531 886.738281 779.78125 885.261719 C 779.171875 883.78125 778.59375 882.289062 778.054688 880.78125 C 777.515625 879.277344 777.015625 877.757812 776.550781 876.226562 C 776.085938 874.695312 775.65625 873.152344 775.269531 871.597656 C 774.878906 870.046875 774.53125 868.484375 774.21875 866.917969 C 773.90625 865.347656 773.632812 863.769531 773.398438 862.1875 C 773.164062 860.605469 772.964844 859.015625 772.808594 857.421875 C 772.652344 855.832031 772.535156 854.234375 772.457031 852.636719 C 772.378906 851.039062 772.339844 849.4375 772.339844 847.839844 L 772.339844 652.15625 C 772.339844 650.558594 772.378906 648.957031 772.457031 647.359375 C 772.535156 645.761719 772.652344 644.164062 772.808594 642.574219 C 772.964844 640.980469 773.164062 639.390625 773.398438 637.808594 C 773.632812 636.226562 773.90625 634.648438 774.21875 633.078125 C 774.53125 631.511719 774.878906 629.949219 775.269531 628.398438 C 775.65625 626.84375 776.085938 625.300781 776.550781 623.769531 C 777.015625 622.238281 777.515625 620.71875 778.054688 619.214844 C 778.59375 617.707031 779.171875 616.214844 779.78125 614.734375 C 780.394531 613.257812 781.042969 611.792969 781.726562 610.347656 C 782.410156 608.902344 783.132812 607.472656 783.886719 606.058594 C 784.640625 604.648438 785.429688 603.257812 786.25 601.882812 C 787.074219 600.511719 787.929688 599.160156 788.820312 597.828125 C 789.707031 596.496094 790.628906 595.191406 791.582031 593.902344 C 792.535156 592.617188 793.519531 591.359375 794.535156 590.121094 C 795.550781 588.882812 796.597656 587.671875 797.671875 586.484375 C 798.746094 585.300781 799.847656 584.140625 800.980469 583.007812 C 802.113281 581.878906 803.269531 580.773438 804.457031 579.699219 C 805.644531 578.625 806.855469 577.582031 808.089844 576.566406 C 809.328125 575.550781 810.589844 574.566406 811.875 573.613281 C 813.160156 572.660156 814.46875 571.738281 815.800781 570.847656 C 817.128906 569.960938 818.480469 569.101562 819.855469 568.28125 C 821.226562 567.457031 822.621094 566.667969 824.03125 565.914062 C 825.441406 565.160156 826.871094 564.441406 828.316406 563.757812 C 829.765625 563.070312 831.226562 562.421875 832.707031 561.8125 C 834.183594 561.199219 835.675781 560.625 837.183594 560.082031 C 838.691406 559.542969 840.210938 559.042969 841.742188 558.578125 C 843.273438 558.113281 844.816406 557.6875 846.367188 557.296875 C 847.921875 556.910156 849.480469 556.558594 851.050781 556.246094 C 852.621094 555.933594 854.195312 555.660156 855.78125 555.425781 C 857.363281 555.191406 858.953125 554.996094 860.542969 554.839844 C 862.136719 554.679688 863.730469 554.5625 865.332031 554.484375 C 866.929688 554.40625 868.527344 554.367188 870.128906 554.367188 Z M 870.128906 554.367188 " fill-opacity="1" fill-rule="nonzero"/></g><g clip-path="url(#e5b3c98eee)"><path fill="#4c243b" d="M 1110.445312 554.367188 L 1110.492188 554.367188 C 1112.09375 554.367188 1113.695312 554.40625 1115.292969 554.484375 C 1116.890625 554.5625 1118.484375 554.679688 1120.078125 554.839844 C 1121.671875 554.996094 1123.257812 555.191406 1124.84375 555.425781 C 1126.425781 555.660156 1128.003906 555.933594 1129.570312 556.246094 C 1131.140625 556.558594 1132.703125 556.910156 1134.253906 557.296875 C 1135.808594 557.6875 1137.347656 558.113281 1138.878906 558.578125 C 1140.414062 559.042969 1141.929688 559.542969 1143.4375 560.082031 C 1144.945312 560.625 1146.4375 561.199219 1147.917969 561.8125 C 1149.394531 562.421875 1150.859375 563.070312 1152.304688 563.757812 C 1153.75 564.441406 1155.179688 565.160156 1156.589844 565.914062 C 1158.003906 566.667969 1159.394531 567.457031 1160.769531 568.28125 C 1162.140625 569.101562 1163.492188 569.957031 1164.824219 570.847656 C 1166.152344 571.738281 1167.460938 572.660156 1168.746094 573.613281 C 1170.03125 574.566406 1171.292969 575.550781 1172.53125 576.566406 C 1173.769531 577.582031 1174.980469 578.625 1176.164062 579.699219 C 1177.351562 580.773438 1178.511719 581.878906 1179.640625 583.007812 C 1180.773438 584.140625 1181.875 585.300781 1182.953125 586.484375 C 1184.027344 587.671875 1185.070312 588.882812 1186.085938 590.121094 C 1187.101562 591.359375 1188.085938 592.617188 1189.039062 593.902344 C 1189.992188 595.191406 1190.914062 596.496094 1191.804688 597.828125 C 1192.691406 599.160156 1193.546875 600.511719 1194.371094 601.882812 C 1195.195312 603.257812 1195.984375 604.648438 1196.738281 606.058594 C 1197.492188 607.472656 1198.210938 608.898438 1198.894531 610.347656 C 1199.578125 611.792969 1200.226562 613.257812 1200.839844 614.734375 C 1201.453125 616.214844 1202.027344 617.707031 1202.566406 619.214844 C 1203.105469 620.71875 1203.609375 622.238281 1204.074219 623.769531 C 1204.539062 625.300781 1204.964844 626.84375 1205.355469 628.398438 C 1205.742188 629.949219 1206.09375 631.511719 1206.40625 633.078125 C 1206.71875 634.648438 1206.992188 636.226562 1207.226562 637.808594 C 1207.460938 639.390625 1207.65625 640.980469 1207.8125 642.574219 C 1207.96875 644.164062 1208.089844 645.761719 1208.167969 647.359375 C 1208.246094 648.957031 1208.285156 650.558594 1208.285156 652.15625 L 1208.285156 847.839844 C 1208.285156 849.4375 1208.246094 851.039062 1208.167969 852.636719 C 1208.089844 854.234375 1207.96875 855.832031 1207.8125 857.421875 C 1207.65625 859.015625 1207.460938 860.605469 1207.226562 862.1875 C 1206.992188 863.769531 1206.71875 865.347656 1206.40625 866.917969 C 1206.09375 868.484375 1205.742188 870.046875 1205.355469 871.597656 C 1204.964844 873.152344 1204.539062 874.695312 1204.074219 876.226562 C 1203.609375 877.757812 1203.105469 879.277344 1202.566406 880.78125 C 1202.027344 882.289062 1201.453125 883.78125 1200.839844 885.261719 C 1200.226562 886.738281 1199.578125 888.203125 1198.894531 889.648438 C 1198.210938 891.09375 1197.492188 892.523438 1196.738281 893.9375 C 1195.984375 895.347656 1195.195312 896.738281 1194.371094 898.113281 C 1193.546875 899.484375 1192.691406 900.835938 1191.804688 902.167969 C 1190.914062 903.5 1189.992188 904.804688 1189.039062 906.09375 C 1188.085938 907.378906 1187.101562 908.636719 1186.085938 909.875 C 1185.070312 911.113281 1184.027344 912.324219 1182.953125 913.511719 C 1181.875 914.695312 1180.773438 915.855469 1179.640625 916.988281 C 1178.511719 918.117188 1177.351562 919.222656 1176.164062 920.296875 C 1174.980469 921.371094 1173.769531 922.414062 1172.53125 923.429688 C 1171.292969 924.445312 1170.03125 925.429688 1168.746094 926.382812 C 1167.460938 927.335938 1166.152344 928.257812 1164.824219 929.148438 C 1163.492188 930.039062 1162.140625 930.894531 1160.769531 931.714844 C 1159.394531 932.539062 1158.003906 933.328125 1156.59375 934.082031 C 1155.179688 934.835938 1153.75 935.554688 1152.304688 936.238281 C 1150.859375 936.925781 1149.394531 937.574219 1147.917969 938.183594 C 1146.4375 938.796875 1144.945312 939.375 1143.4375 939.914062 C 1141.929688 940.453125 1140.414062 940.953125 1138.878906 941.417969 C 1137.347656 941.882812 1135.808594 942.308594 1134.253906 942.699219 C 1132.703125 943.085938 1131.140625 943.4375 1129.570312 943.75 C 1128.003906 944.0625 1126.425781 944.335938 1124.84375 944.570312 C 1123.257812 944.804688 1121.671875 945 1120.078125 945.15625 C 1118.484375 945.316406 1116.890625 945.433594 1115.292969 945.511719 C 1113.695312 945.589844 1112.09375 945.628906 1110.492188 945.628906 L 1110.445312 945.628906 C 1108.84375 945.628906 1107.246094 945.589844 1105.644531 945.511719 C 1104.046875 945.433594 1102.453125 945.316406 1100.859375 945.15625 C 1099.265625 945 1097.679688 944.804688 1096.09375 944.570312 C 1094.511719 944.335938 1092.9375 944.0625 1091.367188 943.75 C 1089.796875 943.4375 1088.234375 943.085938 1086.683594 942.699219 C 1085.128906 942.308594 1083.589844 941.882812 1082.058594 941.417969 C 1080.527344 940.953125 1079.007812 940.453125 1077.5 939.914062 C 1075.992188 939.371094 1074.5 938.796875 1073.019531 938.183594 C 1071.542969 937.570312 1070.082031 936.925781 1068.632812 936.238281 C 1067.1875 935.554688 1065.757812 934.835938 1064.347656 934.082031 C 1062.933594 933.328125 1061.542969 932.539062 1060.167969 931.714844 C 1058.796875 930.894531 1057.445312 930.035156 1056.113281 929.148438 C 1054.785156 928.257812 1053.476562 927.335938 1052.191406 926.382812 C 1050.90625 925.429688 1049.644531 924.445312 1048.40625 923.429688 C 1047.167969 922.414062 1045.957031 921.371094 1044.773438 920.296875 C 1043.585938 919.222656 1042.425781 918.117188 1041.296875 916.988281 C 1040.164062 915.855469 1039.0625 914.695312 1037.984375 913.511719 C 1036.910156 912.324219 1035.867188 911.113281 1034.851562 909.875 C 1033.835938 908.636719 1032.851562 907.378906 1031.898438 906.09375 C 1030.945312 904.804688 1030.023438 903.5 1029.132812 902.167969 C 1028.246094 900.835938 1027.390625 899.484375 1026.566406 898.113281 C 1025.742188 896.738281 1024.957031 895.347656 1024.199219 893.9375 C 1023.445312 892.523438 1022.726562 891.09375 1022.042969 889.648438 C 1021.359375 888.203125 1020.710938 886.738281 1020.097656 885.261719 C 1019.484375 883.78125 1018.910156 882.289062 1018.371094 880.78125 C 1017.832031 879.277344 1017.328125 877.757812 1016.863281 876.226562 C 1016.398438 874.695312 1015.972656 873.152344 1015.585938 871.597656 C 1015.195312 870.046875 1014.84375 868.484375 1014.53125 866.917969 C 1014.21875 865.347656 1013.945312 863.769531 1013.710938 862.1875 C 1013.476562 860.605469 1013.28125 859.015625 1013.125 857.421875 C 1012.96875 855.832031 1012.851562 854.234375 1012.773438 852.636719 C 1012.691406 851.039062 1012.652344 849.4375 1012.652344 847.839844 L 1012.652344 652.15625 C 1012.652344 650.558594 1012.691406 648.957031 1012.773438 647.359375 C 1012.851562 645.761719 1012.96875 644.164062 1013.125 642.574219 C 1013.28125 640.980469 1013.476562 639.390625 1013.710938 637.808594 C 1013.945312 636.226562 1014.21875 634.648438 1014.53125 633.078125 C 1014.84375 631.511719 1015.195312 629.949219 1015.585938 628.398438 C 1015.972656 626.84375 1016.398438 625.300781 1016.863281 623.769531 C 1017.328125 622.238281 1017.832031 620.71875 1018.371094 619.214844 C 1018.910156 617.707031 1019.484375 616.214844 1020.097656 614.734375 C 1020.710938 613.257812 1021.359375 611.792969 1022.042969 610.347656 C 1022.726562 608.902344 1023.445312 607.472656 1024.199219 606.058594 C 1024.957031 604.648438 1025.742188 603.257812 1026.566406 601.882812 C 1027.390625 600.511719 1028.246094 599.160156 1029.132812 597.828125 C 1030.023438 596.496094 1030.945312 595.191406 1031.898438 593.902344 C 1032.851562 592.617188 1033.835938 591.359375 1034.851562 590.121094 C 1035.867188 588.882812 1036.910156 587.671875 1037.984375 586.484375 C 1039.0625 585.300781 1040.164062 584.140625 1041.296875 583.007812 C 1042.425781 581.878906 1043.585938 580.773438 1044.773438 579.699219 C 1045.957031 578.625 1047.167969 577.582031 1048.40625 576.566406 C 1049.644531 575.550781 1050.90625 574.566406 1052.191406 573.613281 C 1053.476562 572.660156 1054.785156 571.738281 1056.113281 570.847656 C 1057.445312 569.960938 1058.796875 569.101562 1060.167969 568.28125 C 1061.542969 567.457031 1062.933594 566.667969 1064.347656 565.914062 C 1065.757812 565.160156 1067.1875 564.441406 1068.632812 563.757812 C 1070.078125 563.070312 1071.542969 562.421875 1073.019531 561.8125 C 1074.5 561.199219 1075.992188 560.625 1077.5 560.082031 C 1079.007812 559.542969 1080.527344 559.042969 1082.058594 558.578125 C 1083.589844 558.113281 1085.128906 557.6875 1086.683594 557.296875 C 1088.234375 556.910156 1089.796875 556.558594 1091.367188 556.246094 C 1092.9375 555.933594 1094.511719 555.660156 1096.09375 555.425781 C 1097.679688 555.191406 1099.265625 554.996094 1100.859375 554.839844 C 1102.453125 554.679688 1104.046875 554.5625 1105.644531 554.484375 C 1107.246094 554.40625 1108.84375 554.367188 1110.445312 554.367188 Z M 1110.445312 554.367188 " fill-opacity="1" fill-rule="nonzero"/></g></svg>