<svg xmlns="http://www.w3.org/2000/svg" xmlns:xlink="http://www.w3.org/1999/xlink" width="2000" zoomAndPan="magnify" viewBox="0 0 1500 1499.999933" height="2000" preserveAspectRatio="xMidYMid meet" version="1.0"><defs><g/><clipPath id="fb65b5908a"><path d="M 433.515625 433 L 569 433 L 569 703.625 L 433.515625 703.625 Z M 433.515625 433 " clip-rule="nonzero"/></clipPath><clipPath id="c6f7797ffc"><path d="M 599 433 L 735 433 L 735 703.625 L 599 703.625 Z M 599 433 " clip-rule="nonzero"/></clipPath><clipPath id="217c57b075"><path d="M 765 433 L 901 433 L 901 703.625 L 765 703.625 Z M 765 433 " clip-rule="nonzero"/></clipPath><clipPath id="2ae30e73be"><path d="M 931 433 L 1066.515625 433 L 1066.515625 703.625 L 931 703.625 Z M 931 433 " clip-rule="nonzero"/></clipPath><clipPath id="1860021df8"><path d="M 1 0.28125 L 551 0.28125 L 551 77.558594 L 1 77.558594 Z M 1 0.28125 " clip-rule="nonzero"/></clipPath><clipPath id="b66ef3aad3"><rect x="0" width="552" y="0" height="78"/></clipPath></defs><rect x="-150" width="1800" fill="#ffffff" y="-149.999993" height="1799.99992" fill-opacity="1"/><rect x="-150" width="1800" fill="#ffffff" y="-149.999993" height="1799.99992" fill-opacity="1"/><g clip-path="url(#fb65b5908a)"><path fill="#e48db7" d="M 501.019531 433.054688 L 501.054688 433.054688 C 502.160156 433.054688 503.265625 433.082031 504.371094 433.136719 C 505.472656 433.191406 506.574219 433.273438 507.675781 433.378906 C 508.777344 433.488281 509.871094 433.625 510.964844 433.785156 C 512.058594 433.949219 513.148438 434.136719 514.230469 434.351562 C 515.316406 434.566406 516.394531 434.808594 517.464844 435.078125 C 518.539062 435.347656 519.601562 435.640625 520.660156 435.964844 C 521.71875 436.285156 522.769531 436.628906 523.808594 437.003906 C 524.847656 437.375 525.878906 437.773438 526.902344 438.195312 C 527.921875 438.617188 528.933594 439.066406 529.933594 439.539062 C 530.929688 440.011719 531.917969 440.507812 532.894531 441.03125 C 533.867188 441.550781 534.828125 442.09375 535.777344 442.664062 C 536.726562 443.230469 537.660156 443.824219 538.578125 444.4375 C 539.496094 445.050781 540.402344 445.6875 541.289062 446.347656 C 542.175781 447.003906 543.046875 447.683594 543.902344 448.386719 C 544.757812 449.085938 545.59375 449.808594 546.410156 450.550781 C 547.230469 451.292969 548.03125 452.054688 548.8125 452.835938 C 549.59375 453.617188 550.355469 454.417969 551.097656 455.238281 C 551.839844 456.054688 552.5625 456.894531 553.265625 457.746094 C 553.964844 458.601562 554.644531 459.472656 555.304688 460.359375 C 555.960938 461.25 556.597656 462.152344 557.210938 463.070312 C 557.824219 463.992188 558.417969 464.925781 558.984375 465.871094 C 559.554688 466.820312 560.097656 467.78125 560.621094 468.757812 C 561.140625 469.730469 561.636719 470.71875 562.109375 471.71875 C 562.582031 472.714844 563.03125 473.726562 563.453125 474.746094 C 563.875 475.769531 564.273438 476.800781 564.644531 477.839844 C 565.019531 478.882812 565.367188 479.929688 565.6875 480.988281 C 566.007812 482.046875 566.300781 483.109375 566.570312 484.183594 C 566.839844 485.253906 567.082031 486.332031 567.296875 487.417969 C 567.511719 488.5 567.703125 489.589844 567.863281 490.683594 C 568.027344 491.777344 568.160156 492.875 568.269531 493.972656 C 568.378906 495.074219 568.457031 496.175781 568.511719 497.28125 C 568.566406 498.382812 568.59375 499.488281 568.59375 500.59375 L 568.59375 635.742188 C 568.59375 636.847656 568.566406 637.949219 568.511719 639.054688 C 568.457031 640.160156 568.378906 641.261719 568.269531 642.359375 C 568.160156 643.460938 568.027344 644.558594 567.863281 645.652344 C 567.703125 646.742188 567.511719 647.832031 567.296875 648.917969 C 567.082031 650 566.839844 651.078125 566.570312 652.152344 C 566.300781 653.222656 566.007812 654.289062 565.6875 655.347656 C 565.367188 656.402344 565.019531 657.453125 564.644531 658.492188 C 564.273438 659.535156 563.875 660.566406 563.453125 661.585938 C 563.03125 662.609375 562.582031 663.617188 562.109375 664.617188 C 561.636719 665.617188 561.140625 666.601562 560.621094 667.578125 C 560.097656 668.554688 559.554688 669.515625 558.984375 670.460938 C 558.417969 671.410156 557.828125 672.34375 557.210938 673.261719 C 556.597656 674.183594 555.960938 675.085938 555.304688 675.972656 C 554.644531 676.859375 553.964844 677.730469 553.265625 678.585938 C 552.5625 679.441406 551.839844 680.277344 551.097656 681.097656 C 550.355469 681.914062 549.59375 682.714844 548.8125 683.496094 C 548.03125 684.28125 547.230469 685.042969 546.410156 685.785156 C 545.59375 686.527344 544.757812 687.246094 543.902344 687.949219 C 543.046875 688.648438 542.175781 689.328125 541.289062 689.988281 C 540.402344 690.648438 539.496094 691.28125 538.578125 691.898438 C 537.660156 692.511719 536.726562 693.101562 535.777344 693.671875 C 534.828125 694.238281 533.867188 694.785156 532.894531 695.304688 C 531.917969 695.824219 530.929688 696.324219 529.933594 696.796875 C 528.933594 697.269531 527.921875 697.714844 526.902344 698.136719 C 525.878906 698.5625 524.847656 698.960938 523.808594 699.332031 C 522.769531 699.703125 521.71875 700.050781 520.660156 700.371094 C 519.601562 700.691406 518.539062 700.988281 517.464844 701.253906 C 516.394531 701.523438 515.316406 701.765625 514.230469 701.980469 C 513.148438 702.199219 512.058594 702.386719 510.964844 702.546875 C 509.871094 702.710938 508.777344 702.847656 507.675781 702.953125 C 506.574219 703.0625 505.472656 703.144531 504.371094 703.199219 C 503.265625 703.253906 502.160156 703.28125 501.054688 703.28125 L 501.019531 703.28125 C 499.914062 703.28125 498.8125 703.253906 497.707031 703.199219 C 496.601562 703.144531 495.5 703.0625 494.402344 702.953125 C 493.300781 702.847656 492.203125 702.710938 491.109375 702.546875 C 490.019531 702.386719 488.929688 702.199219 487.84375 701.980469 C 486.761719 701.765625 485.683594 701.523438 484.609375 701.253906 C 483.539062 700.988281 482.472656 700.691406 481.414062 700.371094 C 480.359375 700.050781 479.308594 699.703125 478.269531 699.332031 C 477.226562 698.960938 476.195312 698.5625 475.175781 698.136719 C 474.152344 697.714844 473.144531 697.269531 472.144531 696.796875 C 471.144531 696.324219 470.160156 695.824219 469.183594 695.304688 C 468.207031 694.785156 467.246094 694.238281 466.300781 693.671875 C 465.351562 693.101562 464.417969 692.511719 463.5 691.898438 C 462.578125 691.28125 461.675781 690.648438 460.789062 689.988281 C 459.902344 689.328125 459.027344 688.648438 458.175781 687.949219 C 457.320312 687.246094 456.484375 686.527344 455.664062 685.785156 C 454.847656 685.042969 454.046875 684.28125 453.265625 683.496094 C 452.480469 682.714844 451.71875 681.914062 450.976562 681.097656 C 450.234375 680.277344 449.515625 679.441406 448.8125 678.585938 C 448.113281 677.730469 447.433594 676.859375 446.773438 675.972656 C 446.113281 675.085938 445.480469 674.183594 444.863281 673.261719 C 444.25 672.34375 443.660156 671.410156 443.089844 670.460938 C 442.523438 669.515625 441.976562 668.554688 441.457031 667.578125 C 440.9375 666.601562 440.4375 665.617188 439.964844 664.617188 C 439.492188 663.617188 439.046875 662.609375 438.625 661.585938 C 438.199219 660.566406 437.800781 659.535156 437.429688 658.492188 C 437.058594 657.453125 436.710938 656.402344 436.390625 655.347656 C 436.070312 654.289062 435.773438 653.222656 435.507812 652.152344 C 435.238281 651.078125 434.996094 650 434.78125 648.917969 C 434.5625 647.832031 434.375 646.742188 434.214844 645.652344 C 434.050781 644.558594 433.914062 643.460938 433.808594 642.359375 C 433.699219 641.261719 433.617188 640.160156 433.5625 639.054688 C 433.507812 637.949219 433.480469 636.847656 433.480469 635.742188 L 433.480469 500.59375 C 433.480469 499.488281 433.507812 498.382812 433.5625 497.28125 C 433.617188 496.175781 433.699219 495.074219 433.808594 493.972656 C 433.914062 492.875 434.050781 491.777344 434.214844 490.683594 C 434.375 489.589844 434.5625 488.5 434.78125 487.417969 C 434.996094 486.332031 435.238281 485.253906 435.507812 484.183594 C 435.773438 483.109375 436.070312 482.046875 436.390625 480.988281 C 436.710938 479.929688 437.058594 478.882812 437.429688 477.839844 C 437.800781 476.800781 438.199219 475.769531 438.625 474.746094 C 439.046875 473.726562 439.492188 472.714844 439.964844 471.71875 C 440.4375 470.71875 440.9375 469.730469 441.457031 468.757812 C 441.976562 467.78125 442.523438 466.820312 443.089844 465.871094 C 443.660156 464.925781 444.25 463.992188 444.863281 463.070312 C 445.480469 462.152344 446.113281 461.25 446.773438 460.359375 C 447.433594 459.472656 448.113281 458.601562 448.8125 457.746094 C 449.515625 456.894531 450.234375 456.054688 450.976562 455.238281 C 451.71875 454.417969 452.480469 453.617188 453.265625 452.835938 C 454.046875 452.054688 454.847656 451.292969 455.664062 450.550781 C 456.484375 449.808594 457.320312 449.085938 458.175781 448.386719 C 459.027344 447.683594 459.902344 447.003906 460.789062 446.347656 C 461.675781 445.6875 462.578125 445.050781 463.5 444.4375 C 464.417969 443.824219 465.351562 443.230469 466.300781 442.664062 C 467.246094 442.09375 468.207031 441.550781 469.183594 441.03125 C 470.160156 440.507812 471.144531 440.011719 472.144531 439.539062 C 473.144531 439.066406 474.152344 438.617188 475.175781 438.195312 C 476.195312 437.773438 477.226562 437.375 478.269531 437.003906 C 479.308594 436.628906 480.359375 436.285156 481.414062 435.964844 C 482.472656 435.640625 483.539062 435.347656 484.609375 435.078125 C 485.683594 434.808594 486.761719 434.566406 487.84375 434.351562 C 488.929688 434.136719 490.019531 433.949219 491.109375 433.785156 C 492.203125 433.625 493.300781 433.488281 494.402344 433.378906 C 495.5 433.273438 496.601562 433.191406 497.707031 433.136719 C 498.8125 433.082031 499.914062 433.054688 501.019531 433.054688 Z M 501.019531 433.054688 " fill-opacity="1" fill-rule="nonzero"/></g><g clip-path="url(#c6f7797ffc)"><path fill="#996880" d="M 666.996094 433.054688 L 667.027344 433.054688 C 668.132812 433.054688 669.238281 433.082031 670.34375 433.136719 C 671.445312 433.191406 672.550781 433.273438 673.648438 433.378906 C 674.75 433.488281 675.847656 433.625 676.9375 433.785156 C 678.03125 433.949219 679.121094 434.136719 680.207031 434.351562 C 681.289062 434.566406 682.367188 434.808594 683.441406 435.078125 C 684.511719 435.347656 685.578125 435.640625 686.632812 435.964844 C 687.691406 436.285156 688.742188 436.628906 689.78125 437.003906 C 690.824219 437.375 691.855469 437.773438 692.875 438.195312 C 693.894531 438.617188 694.90625 439.066406 695.90625 439.539062 C 696.90625 440.011719 697.890625 440.507812 698.867188 441.03125 C 699.839844 441.550781 700.804688 442.09375 701.75 442.664062 C 702.699219 443.230469 703.632812 443.824219 704.550781 444.4375 C 705.472656 445.050781 706.375 445.6875 707.261719 446.347656 C 708.148438 447.003906 709.019531 447.683594 709.875 448.386719 C 710.730469 449.085938 711.566406 449.808594 712.386719 450.550781 C 713.203125 451.292969 714.003906 452.054688 714.785156 452.835938 C 715.566406 453.617188 716.328125 454.417969 717.070312 455.238281 C 717.8125 456.054688 718.535156 456.894531 719.238281 457.746094 C 719.9375 458.601562 720.617188 459.472656 721.277344 460.359375 C 721.933594 461.25 722.570312 462.152344 723.1875 463.070312 C 723.800781 463.992188 724.390625 464.925781 724.960938 465.871094 C 725.527344 466.820312 726.070312 467.78125 726.59375 468.757812 C 727.113281 469.730469 727.609375 470.71875 728.082031 471.71875 C 728.554688 472.714844 729.003906 473.726562 729.425781 474.746094 C 729.851562 475.769531 730.246094 476.800781 730.621094 477.839844 C 730.992188 478.882812 731.339844 479.929688 731.660156 480.988281 C 731.980469 482.046875 732.277344 483.109375 732.542969 484.183594 C 732.8125 485.253906 733.054688 486.332031 733.269531 487.417969 C 733.484375 488.5 733.675781 489.589844 733.835938 490.683594 C 734 491.777344 734.132812 492.875 734.242188 493.972656 C 734.351562 495.074219 734.433594 496.175781 734.488281 497.28125 C 734.539062 498.382812 734.566406 499.488281 734.566406 500.59375 L 734.566406 635.742188 C 734.566406 636.847656 734.539062 637.949219 734.488281 639.054688 C 734.433594 640.160156 734.351562 641.261719 734.242188 642.359375 C 734.132812 643.460938 734 644.558594 733.835938 645.652344 C 733.675781 646.742188 733.484375 647.832031 733.269531 648.917969 C 733.054688 650 732.8125 651.078125 732.542969 652.152344 C 732.277344 653.222656 731.980469 654.289062 731.660156 655.347656 C 731.339844 656.402344 730.992188 657.453125 730.621094 658.492188 C 730.246094 659.535156 729.851562 660.566406 729.425781 661.585938 C 729.003906 662.609375 728.554688 663.617188 728.082031 664.617188 C 727.609375 665.617188 727.113281 666.601562 726.59375 667.578125 C 726.070312 668.554688 725.527344 669.515625 724.960938 670.460938 C 724.390625 671.410156 723.800781 672.34375 723.1875 673.261719 C 722.570312 674.183594 721.933594 675.085938 721.277344 675.972656 C 720.617188 676.859375 719.9375 677.730469 719.238281 678.585938 C 718.535156 679.441406 717.8125 680.277344 717.070312 681.097656 C 716.328125 681.914062 715.566406 682.714844 714.785156 683.496094 C 714.003906 684.28125 713.203125 685.042969 712.386719 685.785156 C 711.566406 686.527344 710.730469 687.246094 709.875 687.949219 C 709.019531 688.648438 708.148438 689.328125 707.261719 689.988281 C 706.375 690.648438 705.46875 691.28125 704.550781 691.898438 C 703.632812 692.511719 702.699219 693.101562 701.75 693.671875 C 700.804688 694.238281 699.839844 694.785156 698.867188 695.304688 C 697.890625 695.824219 696.90625 696.324219 695.90625 696.796875 C 694.90625 697.269531 693.894531 697.714844 692.875 698.136719 C 691.855469 698.5625 690.824219 698.960938 689.78125 699.332031 C 688.742188 699.703125 687.691406 700.050781 686.632812 700.371094 C 685.578125 700.691406 684.511719 700.988281 683.441406 701.253906 C 682.367188 701.523438 681.289062 701.765625 680.207031 701.980469 C 679.121094 702.199219 678.03125 702.386719 676.9375 702.546875 C 675.847656 702.710938 674.75 702.847656 673.648438 702.953125 C 672.550781 703.0625 671.445312 703.144531 670.34375 703.199219 C 669.238281 703.253906 668.132812 703.28125 667.027344 703.28125 L 666.996094 703.28125 C 665.890625 703.28125 664.785156 703.253906 663.679688 703.199219 C 662.578125 703.144531 661.476562 703.0625 660.375 702.953125 C 659.273438 702.847656 658.179688 702.710938 657.085938 702.546875 C 655.992188 702.386719 654.902344 702.199219 653.820312 701.980469 C 652.734375 701.765625 651.65625 701.523438 650.585938 701.253906 C 649.511719 700.988281 648.445312 700.691406 647.390625 700.371094 C 646.332031 700.050781 645.28125 699.703125 644.242188 699.332031 C 643.199219 698.960938 642.167969 698.5625 641.148438 698.136719 C 640.128906 697.714844 639.117188 697.269531 638.117188 696.796875 C 637.117188 696.324219 636.132812 695.824219 635.15625 695.304688 C 634.183594 694.785156 633.222656 694.238281 632.273438 693.671875 C 631.324219 693.101562 630.390625 692.511719 629.472656 691.898438 C 628.554688 691.28125 627.648438 690.648438 626.761719 689.988281 C 625.875 689.328125 625.003906 688.648438 624.148438 687.949219 C 623.292969 687.246094 622.457031 686.527344 621.636719 685.785156 C 620.820312 685.042969 620.019531 684.28125 619.238281 683.496094 C 618.457031 682.714844 617.695312 681.914062 616.953125 681.097656 C 616.210938 680.277344 615.488281 679.441406 614.785156 678.585938 C 614.085938 677.730469 613.40625 676.859375 612.746094 675.972656 C 612.089844 675.085938 611.453125 674.183594 610.839844 673.261719 C 610.222656 672.34375 609.632812 671.410156 609.066406 670.460938 C 608.496094 669.515625 607.953125 668.554688 607.429688 667.578125 C 606.910156 666.601562 606.414062 665.617188 605.941406 664.617188 C 605.46875 663.617188 605.019531 662.609375 604.597656 661.585938 C 604.175781 660.566406 603.777344 659.535156 603.402344 658.492188 C 603.03125 657.453125 602.683594 656.402344 602.363281 655.347656 C 602.042969 654.289062 601.75 653.222656 601.480469 652.152344 C 601.210938 651.078125 600.96875 650 600.753906 648.917969 C 600.539062 647.832031 600.347656 646.742188 600.1875 645.652344 C 600.023438 644.558594 599.890625 643.460938 599.78125 642.359375 C 599.671875 641.261719 599.589844 640.160156 599.539062 639.054688 C 599.484375 637.949219 599.457031 636.847656 599.457031 635.742188 L 599.457031 500.59375 C 599.457031 499.488281 599.484375 498.382812 599.539062 497.28125 C 599.589844 496.175781 599.671875 495.074219 599.78125 493.972656 C 599.890625 492.875 600.023438 491.777344 600.1875 490.683594 C 600.347656 489.589844 600.539062 488.5 600.753906 487.417969 C 600.96875 486.332031 601.210938 485.253906 601.480469 484.183594 C 601.75 483.109375 602.042969 482.046875 602.363281 480.988281 C 602.683594 479.929688 603.03125 478.882812 603.402344 477.839844 C 603.777344 476.800781 604.175781 475.769531 604.597656 474.746094 C 605.019531 473.726562 605.46875 472.714844 605.941406 471.71875 C 606.414062 470.71875 606.910156 469.730469 607.429688 468.757812 C 607.953125 467.78125 608.496094 466.820312 609.066406 465.871094 C 609.632812 464.925781 610.222656 463.992188 610.839844 463.070312 C 611.453125 462.152344 612.089844 461.25 612.746094 460.359375 C 613.40625 459.472656 614.085938 458.601562 614.785156 457.746094 C 615.488281 456.894531 616.210938 456.054688 616.953125 455.238281 C 617.695312 454.417969 618.457031 453.617188 619.238281 452.835938 C 620.019531 452.054688 620.820312 451.292969 621.636719 450.550781 C 622.457031 449.808594 623.292969 449.085938 624.148438 448.386719 C 625.003906 447.683594 625.875 447.003906 626.761719 446.347656 C 627.648438 445.6875 628.554688 445.050781 629.472656 444.4375 C 630.390625 443.824219 631.324219 443.230469 632.273438 442.664062 C 633.222656 442.09375 634.183594 441.550781 635.15625 441.03125 C 636.132812 440.507812 637.117188 440.011719 638.117188 439.539062 C 639.117188 439.066406 640.128906 438.617188 641.148438 438.195312 C 642.167969 437.773438 643.199219 437.375 644.242188 437.003906 C 645.28125 436.628906 646.332031 436.285156 647.390625 435.964844 C 648.445312 435.640625 649.511719 435.347656 650.585938 435.078125 C 651.65625 434.808594 652.734375 434.566406 653.820312 434.351562 C 654.902344 434.136719 655.992188 433.949219 657.085938 433.785156 C 658.179688 433.625 659.273438 433.488281 660.375 433.378906 C 661.476562 433.273438 662.578125 433.191406 663.679688 433.136719 C 664.785156 433.082031 665.890625 433.054688 666.996094 433.054688 Z M 666.996094 433.054688 " fill-opacity="1" fill-rule="nonzero"/></g><g clip-path="url(#217c57b075)"><path fill="#54457f" d="M 832.96875 433.054688 L 833.003906 433.054688 C 834.109375 433.054688 835.210938 433.082031 836.316406 433.136719 C 837.421875 433.191406 838.523438 433.273438 839.621094 433.378906 C 840.722656 433.488281 841.820312 433.625 842.914062 433.785156 C 844.007812 433.949219 845.09375 434.136719 846.179688 434.351562 C 847.261719 434.566406 848.339844 434.808594 849.414062 435.078125 C 850.484375 435.347656 851.550781 435.640625 852.609375 435.964844 C 853.664062 436.285156 854.714844 436.628906 855.753906 437.003906 C 856.796875 437.375 857.828125 437.773438 858.847656 438.195312 C 859.871094 438.617188 860.878906 439.066406 861.878906 439.539062 C 862.878906 440.011719 863.867188 440.507812 864.839844 441.03125 C 865.816406 441.550781 866.777344 442.09375 867.726562 442.664062 C 868.671875 443.230469 869.605469 443.824219 870.523438 444.4375 C 871.445312 445.050781 872.347656 445.6875 873.234375 446.347656 C 874.125 447.003906 874.996094 447.683594 875.847656 448.386719 C 876.703125 449.085938 877.539062 449.808594 878.359375 450.550781 C 879.179688 451.292969 879.976562 452.054688 880.761719 452.835938 C 881.542969 453.617188 882.304688 454.417969 883.046875 455.238281 C 883.789062 456.054688 884.511719 456.894531 885.210938 457.746094 C 885.914062 458.601562 886.59375 459.472656 887.25 460.359375 C 887.910156 461.25 888.546875 462.152344 889.160156 463.070312 C 889.773438 463.992188 890.363281 464.925781 890.933594 465.871094 C 891.5 466.820312 892.046875 467.78125 892.566406 468.757812 C 893.085938 469.730469 893.585938 470.71875 894.058594 471.71875 C 894.53125 472.714844 894.976562 473.726562 895.402344 474.746094 C 895.824219 475.769531 896.222656 476.800781 896.59375 477.839844 C 896.964844 478.882812 897.3125 479.929688 897.632812 480.988281 C 897.953125 482.046875 898.25 483.109375 898.515625 484.183594 C 898.785156 485.253906 899.027344 486.332031 899.242188 487.417969 C 899.460938 488.5 899.648438 489.589844 899.8125 490.683594 C 899.972656 491.777344 900.109375 492.875 900.214844 493.972656 C 900.324219 495.074219 900.40625 496.175781 900.460938 497.28125 C 900.515625 498.382812 900.542969 499.488281 900.542969 500.59375 L 900.542969 635.742188 C 900.542969 636.847656 900.515625 637.949219 900.460938 639.054688 C 900.40625 640.160156 900.324219 641.261719 900.214844 642.359375 C 900.109375 643.460938 899.972656 644.558594 899.8125 645.652344 C 899.648438 646.742188 899.460938 647.832031 899.242188 648.917969 C 899.027344 650 898.785156 651.078125 898.519531 652.152344 C 898.25 653.222656 897.953125 654.289062 897.632812 655.347656 C 897.3125 656.402344 896.964844 657.453125 896.59375 658.492188 C 896.222656 659.535156 895.824219 660.566406 895.402344 661.585938 C 894.976562 662.609375 894.53125 663.617188 894.058594 664.617188 C 893.585938 665.617188 893.085938 666.601562 892.566406 667.578125 C 892.046875 668.554688 891.5 669.515625 890.933594 670.460938 C 890.363281 671.410156 889.773438 672.34375 889.160156 673.261719 C 888.546875 674.183594 887.910156 675.085938 887.25 675.972656 C 886.59375 676.859375 885.914062 677.730469 885.210938 678.585938 C 884.511719 679.441406 883.789062 680.277344 883.046875 681.097656 C 882.304688 681.914062 881.542969 682.714844 880.761719 683.496094 C 879.976562 684.28125 879.179688 685.042969 878.359375 685.785156 C 877.539062 686.527344 876.703125 687.246094 875.847656 687.949219 C 874.996094 688.648438 874.125 689.328125 873.234375 689.988281 C 872.347656 690.648438 871.445312 691.28125 870.523438 691.898438 C 869.605469 692.511719 868.671875 693.101562 867.726562 693.671875 C 866.777344 694.238281 865.816406 694.785156 864.839844 695.304688 C 863.867188 695.824219 862.878906 696.324219 861.878906 696.796875 C 860.878906 697.269531 859.871094 697.714844 858.847656 698.136719 C 857.828125 698.5625 856.796875 698.960938 855.753906 699.332031 C 854.714844 699.703125 853.664062 700.050781 852.609375 700.371094 C 851.550781 700.691406 850.484375 700.988281 849.414062 701.253906 C 848.339844 701.523438 847.261719 701.765625 846.179688 701.980469 C 845.09375 702.199219 844.007812 702.386719 842.914062 702.546875 C 841.820312 702.710938 840.722656 702.847656 839.621094 702.953125 C 838.523438 703.0625 837.421875 703.144531 836.316406 703.199219 C 835.210938 703.253906 834.109375 703.28125 833.003906 703.28125 L 832.96875 703.28125 C 831.863281 703.28125 830.757812 703.253906 829.65625 703.199219 C 828.550781 703.144531 827.449219 703.0625 826.347656 702.953125 C 825.25 702.847656 824.152344 702.710938 823.058594 702.546875 C 821.964844 702.386719 820.875 702.199219 819.792969 701.980469 C 818.707031 701.765625 817.628906 701.523438 816.558594 701.253906 C 815.484375 700.988281 814.421875 700.691406 813.363281 700.371094 C 812.304688 700.050781 811.257812 699.703125 810.214844 699.332031 C 809.175781 698.960938 808.144531 698.5625 807.121094 698.136719 C 806.101562 697.714844 805.089844 697.269531 804.089844 696.796875 C 803.09375 696.324219 802.105469 695.824219 801.128906 695.304688 C 800.15625 694.785156 799.195312 694.238281 798.246094 693.671875 C 797.296875 693.101562 796.363281 692.511719 795.445312 691.898438 C 794.527344 691.28125 793.625 690.648438 792.734375 689.988281 C 791.847656 689.328125 790.976562 688.648438 790.121094 687.949219 C 789.269531 687.246094 788.429688 686.527344 787.613281 685.785156 C 786.792969 685.042969 785.992188 684.28125 785.210938 683.496094 C 784.429688 682.714844 783.667969 681.914062 782.925781 681.097656 C 782.183594 680.277344 781.460938 679.441406 780.761719 678.585938 C 780.058594 677.730469 779.378906 676.859375 778.71875 675.972656 C 778.0625 675.085938 777.425781 674.183594 776.8125 673.261719 C 776.199219 672.34375 775.605469 671.410156 775.039062 670.460938 C 774.46875 669.515625 773.925781 668.554688 773.402344 667.578125 C 772.882812 666.601562 772.386719 665.617188 771.914062 664.617188 C 771.441406 663.617188 770.992188 662.609375 770.570312 661.585938 C 770.148438 660.566406 769.75 659.535156 769.378906 658.492188 C 769.003906 657.453125 768.660156 656.402344 768.335938 655.347656 C 768.015625 654.289062 767.722656 653.222656 767.453125 652.152344 C 767.183594 651.078125 766.941406 650 766.726562 648.917969 C 766.511719 647.832031 766.324219 646.742188 766.160156 645.652344 C 766 644.558594 765.863281 643.460938 765.753906 642.359375 C 765.644531 641.261719 765.566406 640.160156 765.511719 639.054688 C 765.457031 637.949219 765.429688 636.847656 765.429688 635.742188 L 765.429688 500.59375 C 765.429688 499.488281 765.457031 498.382812 765.511719 497.28125 C 765.566406 496.175781 765.644531 495.074219 765.753906 493.972656 C 765.863281 492.875 766 491.777344 766.160156 490.683594 C 766.324219 489.589844 766.511719 488.5 766.726562 487.417969 C 766.941406 486.332031 767.183594 485.253906 767.453125 484.183594 C 767.722656 483.109375 768.015625 482.046875 768.335938 480.988281 C 768.660156 479.929688 769.003906 478.882812 769.378906 477.839844 C 769.75 476.800781 770.148438 475.769531 770.570312 474.746094 C 770.992188 473.726562 771.441406 472.714844 771.914062 471.71875 C 772.386719 470.71875 772.882812 469.730469 773.402344 468.757812 C 773.925781 467.78125 774.46875 466.820312 775.039062 465.871094 C 775.605469 464.925781 776.199219 463.992188 776.8125 463.070312 C 777.425781 462.152344 778.0625 461.25 778.71875 460.359375 C 779.378906 459.472656 780.058594 458.601562 780.761719 457.746094 C 781.460938 456.894531 782.183594 456.054688 782.925781 455.238281 C 783.667969 454.417969 784.429688 453.617188 785.210938 452.835938 C 785.992188 452.054688 786.792969 451.292969 787.613281 450.550781 C 788.429688 449.808594 789.269531 449.085938 790.121094 448.386719 C 790.976562 447.683594 791.847656 447.003906 792.734375 446.347656 C 793.625 445.6875 794.527344 445.050781 795.445312 444.4375 C 796.363281 443.824219 797.296875 443.230469 798.246094 442.664062 C 799.195312 442.09375 800.15625 441.550781 801.128906 441.03125 C 802.105469 440.507812 803.09375 440.011719 804.089844 439.539062 C 805.089844 439.066406 806.101562 438.617188 807.121094 438.195312 C 808.144531 437.773438 809.175781 437.375 810.214844 437.003906 C 811.257812 436.628906 812.304688 436.285156 813.363281 435.964844 C 814.421875 435.640625 815.484375 435.347656 816.558594 435.078125 C 817.628906 434.808594 818.707031 434.566406 819.792969 434.351562 C 820.875 434.136719 821.964844 433.949219 823.058594 433.785156 C 824.152344 433.625 825.25 433.488281 826.347656 433.378906 C 827.449219 433.273438 828.550781 433.191406 829.65625 433.136719 C 830.757812 433.082031 831.863281 433.054688 832.96875 433.054688 Z M 832.96875 433.054688 " fill-opacity="1" fill-rule="nonzero"/></g><g clip-path="url(#2ae30e73be)"><path fill="#4c243b" d="M 998.941406 433.054688 L 998.976562 433.054688 C 1000.082031 433.054688 1001.1875 433.082031 1002.289062 433.136719 C 1003.394531 433.191406 1004.496094 433.273438 1005.597656 433.378906 C 1006.695312 433.488281 1007.792969 433.625 1008.886719 433.785156 C 1009.980469 433.949219 1011.070312 434.136719 1012.152344 434.351562 C 1013.238281 434.566406 1014.316406 434.808594 1015.386719 435.078125 C 1016.460938 435.347656 1017.523438 435.640625 1018.582031 435.964844 C 1019.640625 436.285156 1020.6875 436.628906 1021.730469 437.003906 C 1022.769531 437.375 1023.800781 437.773438 1024.820312 438.195312 C 1025.84375 438.617188 1026.855469 439.066406 1027.851562 439.539062 C 1028.851562 440.011719 1029.839844 440.507812 1030.8125 441.03125 C 1031.789062 441.550781 1032.75 442.09375 1033.699219 442.664062 C 1034.644531 443.230469 1035.578125 443.824219 1036.5 444.4375 C 1037.417969 445.050781 1038.320312 445.6875 1039.210938 446.347656 C 1040.097656 447.003906 1040.96875 447.683594 1041.824219 448.386719 C 1042.675781 449.085938 1043.511719 449.808594 1044.332031 450.550781 C 1045.152344 451.292969 1045.953125 452.054688 1046.734375 452.835938 C 1047.515625 453.617188 1048.277344 454.417969 1049.019531 455.238281 C 1049.761719 456.054688 1050.484375 456.894531 1051.183594 457.746094 C 1051.886719 458.601562 1052.566406 459.472656 1053.222656 460.359375 C 1053.882812 461.25 1054.519531 462.152344 1055.132812 463.070312 C 1055.746094 463.992188 1056.339844 464.925781 1056.90625 465.871094 C 1057.472656 466.820312 1058.019531 467.78125 1058.539062 468.757812 C 1059.0625 469.730469 1059.558594 470.71875 1060.03125 471.71875 C 1060.503906 472.714844 1060.949219 473.726562 1061.375 474.746094 C 1061.796875 475.769531 1062.195312 476.800781 1062.566406 477.839844 C 1062.941406 478.882812 1063.285156 479.929688 1063.605469 480.988281 C 1063.929688 482.046875 1064.222656 483.109375 1064.492188 484.183594 C 1064.757812 485.253906 1065 486.332031 1065.21875 487.417969 C 1065.433594 488.5 1065.621094 489.589844 1065.785156 490.683594 C 1065.945312 491.777344 1066.082031 492.875 1066.191406 493.972656 C 1066.296875 495.074219 1066.378906 496.175781 1066.433594 497.28125 C 1066.488281 498.382812 1066.515625 499.488281 1066.515625 500.59375 L 1066.515625 635.742188 C 1066.515625 636.847656 1066.488281 637.949219 1066.433594 639.054688 C 1066.378906 640.160156 1066.296875 641.261719 1066.191406 642.359375 C 1066.082031 643.460938 1065.945312 644.558594 1065.785156 645.652344 C 1065.621094 646.742188 1065.433594 647.832031 1065.21875 648.917969 C 1065 650 1064.757812 651.078125 1064.492188 652.152344 C 1064.222656 653.222656 1063.929688 654.289062 1063.605469 655.347656 C 1063.285156 656.402344 1062.941406 657.453125 1062.566406 658.492188 C 1062.195312 659.535156 1061.796875 660.566406 1061.375 661.585938 C 1060.949219 662.609375 1060.503906 663.617188 1060.03125 664.617188 C 1059.558594 665.617188 1059.0625 666.601562 1058.539062 667.578125 C 1058.019531 668.554688 1057.472656 669.515625 1056.90625 670.460938 C 1056.339844 671.410156 1055.746094 672.34375 1055.132812 673.261719 C 1054.519531 674.183594 1053.882812 675.085938 1053.222656 675.972656 C 1052.566406 676.859375 1051.886719 677.730469 1051.183594 678.585938 C 1050.484375 679.441406 1049.761719 680.277344 1049.019531 681.097656 C 1048.277344 681.914062 1047.515625 682.714844 1046.734375 683.496094 C 1045.953125 684.28125 1045.152344 685.042969 1044.332031 685.785156 C 1043.515625 686.527344 1042.675781 687.246094 1041.824219 687.949219 C 1040.96875 688.648438 1040.097656 689.328125 1039.210938 689.988281 C 1038.320312 690.648438 1037.417969 691.28125 1036.5 691.898438 C 1035.578125 692.511719 1034.644531 693.101562 1033.699219 693.671875 C 1032.75 694.238281 1031.789062 694.785156 1030.8125 695.304688 C 1029.839844 695.824219 1028.851562 696.324219 1027.851562 696.796875 C 1026.855469 697.269531 1025.84375 697.714844 1024.824219 698.136719 C 1023.800781 698.5625 1022.769531 698.960938 1021.730469 699.332031 C 1020.6875 699.703125 1019.640625 700.050781 1018.582031 700.371094 C 1017.523438 700.691406 1016.460938 700.988281 1015.386719 701.253906 C 1014.316406 701.523438 1013.238281 701.765625 1012.152344 701.980469 C 1011.070312 702.199219 1009.980469 702.386719 1008.886719 702.546875 C 1007.792969 702.710938 1006.695312 702.847656 1005.597656 702.953125 C 1004.496094 703.0625 1003.394531 703.144531 1002.289062 703.199219 C 1001.1875 703.253906 1000.082031 703.28125 998.976562 703.28125 L 998.941406 703.28125 C 997.835938 703.28125 996.730469 703.253906 995.628906 703.199219 C 994.523438 703.144531 993.421875 703.0625 992.320312 702.953125 C 991.222656 702.847656 990.125 702.710938 989.03125 702.546875 C 987.9375 702.386719 986.851562 702.199219 985.765625 701.980469 C 984.683594 701.765625 983.605469 701.523438 982.53125 701.253906 C 981.460938 700.988281 980.394531 700.691406 979.335938 700.371094 C 978.277344 700.050781 977.230469 699.703125 976.1875 699.332031 C 975.148438 698.960938 974.117188 698.5625 973.097656 698.136719 C 972.074219 697.714844 971.066406 697.269531 970.066406 696.796875 C 969.066406 696.324219 968.078125 695.824219 967.105469 695.304688 C 966.128906 694.785156 965.167969 694.238281 964.21875 693.671875 C 963.273438 693.101562 962.339844 692.511719 961.417969 691.898438 C 960.5 691.28125 959.597656 690.648438 958.710938 689.988281 C 957.820312 689.328125 956.949219 688.648438 956.097656 687.949219 C 955.242188 687.246094 954.40625 686.527344 953.585938 685.785156 C 952.765625 685.042969 951.964844 684.28125 951.183594 683.496094 C 950.402344 682.714844 949.640625 681.914062 948.898438 681.097656 C 948.15625 680.277344 947.433594 679.441406 946.734375 678.585938 C 946.03125 677.730469 945.351562 676.859375 944.695312 675.972656 C 944.035156 675.085938 943.398438 674.183594 942.785156 673.261719 C 942.171875 672.34375 941.582031 671.410156 941.011719 670.460938 C 940.445312 669.515625 939.898438 668.554688 939.378906 667.578125 C 938.855469 666.601562 938.359375 665.617188 937.886719 664.617188 C 937.414062 663.617188 936.96875 662.609375 936.542969 661.585938 C 936.121094 660.566406 935.722656 659.535156 935.351562 658.492188 C 934.980469 657.453125 934.632812 656.402344 934.3125 655.347656 C 933.992188 654.289062 933.695312 653.222656 933.425781 652.152344 C 933.160156 651.078125 932.917969 650 932.699219 648.917969 C 932.484375 647.832031 932.296875 646.742188 932.132812 645.652344 C 931.972656 644.558594 931.835938 643.460938 931.726562 642.359375 C 931.621094 641.261719 931.539062 640.160156 931.484375 639.054688 C 931.429688 637.949219 931.402344 636.847656 931.402344 635.742188 L 931.402344 500.59375 C 931.402344 499.488281 931.429688 498.382812 931.484375 497.28125 C 931.539062 496.175781 931.621094 495.074219 931.726562 493.972656 C 931.835938 492.875 931.972656 491.777344 932.132812 490.683594 C 932.296875 489.589844 932.484375 488.5 932.699219 487.417969 C 932.917969 486.332031 933.160156 485.253906 933.425781 484.183594 C 933.695312 483.109375 933.992188 482.046875 934.3125 480.988281 C 934.632812 479.929688 934.980469 478.882812 935.351562 477.839844 C 935.722656 476.800781 936.121094 475.769531 936.542969 474.746094 C 936.96875 473.726562 937.414062 472.714844 937.886719 471.71875 C 938.359375 470.71875 938.855469 469.730469 939.378906 468.757812 C 939.898438 467.78125 940.445312 466.820312 941.011719 465.871094 C 941.582031 464.925781 942.171875 463.992188 942.785156 463.070312 C 943.398438 462.152344 944.035156 461.25 944.695312 460.359375 C 945.351562 459.472656 946.03125 458.601562 946.734375 457.746094 C 947.433594 456.894531 948.15625 456.054688 948.898438 455.238281 C 949.640625 454.417969 950.402344 453.617188 951.183594 452.835938 C 951.964844 452.054688 952.765625 451.292969 953.585938 450.550781 C 954.40625 449.808594 955.242188 449.085938 956.097656 448.386719 C 956.949219 447.683594 957.820312 447.003906 958.710938 446.347656 C 959.597656 445.6875 960.5 445.050781 961.417969 444.4375 C 962.339844 443.824219 963.273438 443.230469 964.21875 442.664062 C 965.167969 442.09375 966.128906 441.550781 967.105469 441.03125 C 968.078125 440.507812 969.066406 440.011719 970.066406 439.539062 C 971.066406 439.066406 972.074219 438.617188 973.097656 438.195312 C 974.117188 437.773438 975.148438 437.375 976.1875 437.003906 C 977.230469 436.628906 978.277344 436.285156 979.335938 435.964844 C 980.394531 435.640625 981.460938 435.347656 982.53125 435.078125 C 983.605469 434.808594 984.683594 434.566406 985.765625 434.351562 C 986.851562 434.136719 987.9375 433.949219 989.03125 433.785156 C 990.125 433.625 991.222656 433.488281 992.320312 433.378906 C 993.421875 433.273438 994.523438 433.191406 995.628906 433.136719 C 996.730469 433.082031 997.835938 433.054688 998.941406 433.054688 Z M 998.941406 433.054688 " fill-opacity="1" fill-rule="nonzero"/></g><g fill="#996880" fill-opacity="1"><g transform="translate(405.621096, 904.809046)"><g><path d="M 72.6875 -4.90625 C 70.507812 -5.800781 68.425781 -6.863281 66.4375 -8.09375 C 64.457031 -9.332031 62.523438 -10.648438 60.640625 -12.046875 C 47.066406 -22.640625 36.21875 -35.46875 28.09375 -50.53125 C 16.394531 -72.53125 15.703125 -94.828125 26.015625 -117.421875 C 31.359375 -129.117188 38.144531 -139.523438 46.375 -148.640625 C 54.601562 -157.753906 64.316406 -165.484375 75.515625 -171.828125 C 80.566406 -174.796875 85.84375 -177.097656 91.34375 -178.734375 C 96.84375 -180.367188 102.613281 -181.085938 108.65625 -180.890625 C 115 -180.796875 120.472656 -179.285156 125.078125 -176.359375 C 129.691406 -173.441406 133.628906 -169.351562 136.890625 -164.09375 C 140.265625 -158.84375 142.644531 -153.296875 144.03125 -147.453125 C 145.414062 -141.609375 146.304688 -135.613281 146.703125 -129.46875 C 147.398438 -118.863281 146.679688 -108.503906 144.546875 -98.390625 C 142.421875 -88.285156 139.769531 -78.226562 136.59375 -68.21875 C 132.925781 -56.226562 128.566406 -44.484375 123.515625 -32.984375 C 118.460938 -21.492188 113.0625 -10.148438 107.3125 1.046875 C 107.019531 1.535156 106.75 2.078125 106.5 2.671875 C 106.25 3.265625 105.976562 3.859375 105.6875 4.453125 C 106.476562 4.453125 107.171875 4.300781 107.765625 4 C 108.359375 3.707031 108.90625 3.460938 109.40625 3.265625 C 113.269531 1.585938 117.15625 -0.0390625 121.0625 -1.625 C 124.976562 -3.21875 128.921875 -4.660156 132.890625 -5.953125 C 133.378906 -6.148438 133.921875 -6.347656 134.515625 -6.546875 C 135.109375 -6.742188 135.703125 -6.890625 136.296875 -6.984375 C 136.796875 -7.179688 137.367188 -7.28125 138.015625 -7.28125 C 138.660156 -7.28125 139.03125 -7.035156 139.125 -6.546875 C 139.320312 -5.847656 139.125 -5.445312 138.53125 -5.34375 C 137.9375 -5.25 137.441406 -5.101562 137.046875 -4.90625 C 131.597656 -2.726562 126.171875 -0.496094 120.765625 1.78125 C 115.367188 4.0625 109.945312 6.390625 104.5 8.765625 C 103.300781 9.359375 102.40625 10.253906 101.8125 11.453125 C 97.351562 19.273438 92.722656 26.976562 87.921875 34.5625 C 83.117188 42.144531 77.59375 49.300781 71.34375 56.03125 C 69.757812 57.625 68.125 59.210938 66.4375 60.796875 C 64.757812 62.378906 62.925781 63.71875 60.9375 64.8125 C 59.351562 65.695312 57.742188 66.335938 56.109375 66.734375 C 54.472656 67.128906 52.765625 67.128906 50.984375 66.734375 C 49.296875 66.335938 48.082031 65.71875 47.34375 64.875 C 46.601562 64.039062 46.234375 62.726562 46.234375 60.9375 C 46.328125 58.0625 46.941406 55.359375 48.078125 52.828125 C 49.222656 50.304688 50.585938 47.90625 52.171875 45.625 C 55.941406 40.28125 60.203125 35.453125 64.953125 31.140625 C 69.710938 26.828125 74.71875 22.789062 79.96875 19.03125 C 82.050781 17.4375 84.207031 15.972656 86.4375 14.640625 C 88.664062 13.304688 90.921875 12.039062 93.203125 10.84375 C 94.484375 10.25 95.519531 9.210938 96.3125 7.734375 C 105.039062 -8.417969 112.820312 -24.894531 119.65625 -41.6875 C 126.488281 -58.488281 132.035156 -75.804688 136.296875 -93.640625 C 138.578125 -102.953125 139.890625 -112.316406 140.234375 -121.734375 C 140.585938 -131.148438 139.425781 -140.515625 136.75 -149.828125 C 134.96875 -155.671875 132.390625 -161.070312 129.015625 -166.03125 C 122.179688 -175.644531 112.96875 -179.5625 101.375 -177.78125 C 95.726562 -176.78125 90.375 -175.113281 85.3125 -172.78125 C 80.257812 -170.457031 75.40625 -167.710938 70.75 -164.546875 C 62.03125 -158.503906 54.300781 -151.617188 47.5625 -143.890625 C 40.820312 -136.160156 35.222656 -127.4375 30.765625 -117.71875 C 20.859375 -96.21875 21.253906 -74.816406 31.953125 -53.515625 C 36.316406 -45.085938 41.546875 -37.453125 47.640625 -30.609375 C 53.734375 -23.773438 60.546875 -17.585938 68.078125 -12.046875 C 70.847656 -10.054688 73.742188 -8.414062 76.765625 -7.125 C 79.796875 -5.84375 83.046875 -5.25 86.515625 -5.34375 C 86.609375 -5.34375 86.703125 -5.34375 86.796875 -5.34375 C 86.898438 -5.34375 87.003906 -5.34375 87.109375 -5.34375 C 87.503906 -5.25 87.972656 -5.222656 88.515625 -5.265625 C 89.054688 -5.316406 89.328125 -5 89.328125 -4.3125 C 89.328125 -3.8125 89.054688 -3.507812 88.515625 -3.40625 C 87.972656 -3.3125 87.453125 -3.21875 86.953125 -3.125 C 84.472656 -2.726562 82.046875 -2.703125 79.671875 -3.046875 C 77.296875 -3.390625 74.96875 -4.007812 72.6875 -4.90625 Z M 82.34375 31.65625 C 83.925781 29.082031 85.484375 26.457031 87.015625 23.78125 C 88.554688 21.101562 90.125 18.476562 91.71875 15.90625 C 85.46875 19.269531 79.640625 23.128906 74.234375 27.484375 C 68.835938 31.847656 63.960938 36.804688 59.609375 42.359375 C 58.117188 44.242188 56.726562 46.175781 55.4375 48.15625 C 54.15625 50.132812 53.066406 52.265625 52.171875 54.546875 C 51.773438 55.640625 51.425781 56.78125 51.125 57.96875 C 50.832031 59.15625 50.734375 60.394531 50.828125 61.6875 C 50.929688 64.257812 52.171875 64.953125 54.546875 63.765625 C 55.734375 63.171875 56.820312 62.476562 57.8125 61.6875 C 58.8125 60.894531 59.804688 60.050781 60.796875 59.15625 C 65.148438 55.09375 69.0625 50.734375 72.53125 46.078125 C 76 41.421875 79.269531 36.613281 82.34375 31.65625 Z M 82.34375 31.65625 "/></g></g></g><g fill="#996880" fill-opacity="1"><g transform="translate(564.505372, 904.809046)"><g><path d="M 51.125 -46.828125 C 52.21875 -46.128906 52.21875 -45.285156 51.125 -44.296875 C 47.0625 -40.628906 43.394531 -36.613281 40.125 -32.25 C 36.863281 -27.894531 33.84375 -23.335938 31.0625 -18.578125 C 27.894531 -13.128906 25.117188 -7.476562 22.734375 -1.625 C 20.359375 4.21875 18.53125 10.304688 17.25 16.640625 C 16.550781 20.210938 16.222656 23.753906 16.265625 27.265625 C 16.316406 30.785156 16.84375 34.28125 17.84375 37.75 C 18.238281 38.9375 18.65625 40.078125 19.09375 41.171875 C 19.539062 42.265625 20.257812 43.207031 21.25 44 C 22.144531 44.59375 22.34375 45.1875 21.84375 45.78125 C 21.644531 46.175781 21.375 46.273438 21.03125 46.078125 C 20.6875 45.878906 20.363281 45.726562 20.0625 45.625 C 18.675781 45.132812 17.507812 44.34375 16.5625 43.25 C 15.625 42.164062 14.757812 40.976562 13.96875 39.6875 C 12.382812 36.71875 11.34375 33.644531 10.84375 30.46875 C 10.351562 27.300781 10.207031 24.03125 10.40625 20.65625 C 10.601562 16 11.269531 11.441406 12.40625 6.984375 C 13.550781 2.523438 14.960938 -1.832031 16.640625 -6.09375 C 16.835938 -6.59375 17.007812 -7.039062 17.15625 -7.4375 C 17.3125 -7.832031 17.441406 -8.226562 17.546875 -8.625 C 17.546875 -8.71875 17.492188 -9.113281 17.390625 -9.8125 C 16.203125 -8.519531 15.0625 -7.253906 13.96875 -6.015625 C 12.882812 -4.773438 11.742188 -3.613281 10.546875 -2.53125 C 8.671875 -0.945312 6.539062 -0.203125 4.15625 -0.296875 C -0.589844 -0.492188 -3.414062 -2.875 -4.3125 -7.4375 C -4.507812 -8.625 -4.628906 -9.8125 -4.671875 -11 C -4.722656 -12.1875 -4.648438 -13.375 -4.453125 -14.5625 C -3.765625 -19.320312 -2.550781 -23.804688 -0.8125 -28.015625 C 0.914062 -32.234375 3.414062 -36.125 6.6875 -39.6875 C 8.375 -41.46875 10.457031 -42.210938 12.9375 -41.921875 C 14.320312 -41.722656 15.1875 -41.320312 15.53125 -40.71875 C 15.875 -40.125 15.648438 -39.1875 14.859375 -37.90625 C 13.972656 -36.320312 13.03125 -34.710938 12.03125 -33.078125 C 11.039062 -31.441406 10.101562 -29.78125 9.21875 -28.09375 C 6.34375 -22.539062 4.410156 -16.789062 3.421875 -10.84375 C 3.117188 -9.257812 3.066406 -7.523438 3.265625 -5.640625 C 3.460938 -4.453125 3.734375 -3.785156 4.078125 -3.640625 C 4.429688 -3.492188 5.101562 -3.765625 6.09375 -4.453125 C 7.78125 -5.847656 9.289062 -7.363281 10.625 -9 C 11.96875 -10.632812 13.332031 -12.242188 14.71875 -13.828125 C 16.695312 -16.109375 18.503906 -18.507812 20.140625 -21.03125 C 21.773438 -23.5625 23.535156 -25.960938 25.421875 -28.234375 C 28.296875 -31.609375 31.316406 -34.832031 34.484375 -37.90625 C 37.648438 -40.976562 40.96875 -43.898438 44.4375 -46.671875 C 45.632812 -47.566406 46.726562 -48.015625 47.71875 -48.015625 C 48.707031 -48.015625 49.84375 -47.617188 51.125 -46.828125 Z M 51.125 -46.828125 "/></g></g></g><g fill="#996880" fill-opacity="1"><g transform="translate(623.213776, 904.809046)"><g><path d="M 66.890625 -25.5625 C 67.578125 -25.957031 68.316406 -26.226562 69.109375 -26.375 C 69.910156 -26.53125 70.804688 -26.257812 71.796875 -25.5625 C 65.148438 -22.59375 59.351562 -18.925781 54.40625 -14.5625 C 52.21875 -12.6875 50.082031 -10.726562 48 -8.6875 C 45.925781 -6.65625 43.847656 -4.648438 41.765625 -2.671875 C 37.503906 1.480469 33.191406 5.617188 28.828125 9.734375 C 24.472656 13.847656 19.96875 17.785156 15.3125 21.546875 C 13.726562 22.835938 12.140625 24.078125 10.546875 25.265625 C 8.960938 26.453125 7.226562 27.492188 5.34375 28.390625 C 4.75 28.585938 4.15625 28.8125 3.5625 29.0625 C 2.96875 29.3125 2.375 29.535156 1.78125 29.734375 C -1.289062 30.523438 -4.113281 30.300781 -6.6875 29.0625 C -9.257812 27.820312 -11.144531 25.710938 -12.34375 22.734375 C -13.726562 19.472656 -14.421875 16.15625 -14.421875 12.78125 C -14.421875 8.125 -13.945312 3.617188 -13 -0.734375 C -12.0625 -5.097656 -10.847656 -9.410156 -9.359375 -13.671875 C -7.773438 -18.128906 -6.015625 -22.488281 -4.078125 -26.75 C -2.148438 -31.007812 -0.0976562 -35.222656 2.078125 -39.390625 C 5.253906 -45.828125 8.550781 -52.21875 11.96875 -58.5625 C 15.382812 -64.90625 18.925781 -71.195312 22.59375 -77.4375 C 25.757812 -82.988281 29.023438 -88.460938 32.390625 -93.859375 C 35.765625 -99.265625 39.140625 -104.691406 42.515625 -110.140625 C 45.984375 -115.390625 49.5 -120.566406 53.0625 -125.671875 C 56.632812 -130.773438 60.398438 -135.753906 64.359375 -140.609375 C 67.734375 -144.773438 71.148438 -148.863281 74.609375 -152.875 C 78.078125 -156.882812 81.597656 -160.875 85.171875 -164.84375 C 85.671875 -165.4375 86.238281 -166.003906 86.875 -166.546875 C 87.519531 -167.097656 88.140625 -167.617188 88.734375 -168.109375 C 89.628906 -168.804688 90.5 -168.832031 91.34375 -168.1875 C 92.1875 -167.539062 92.828125 -166.644531 93.265625 -165.5 C 93.710938 -164.363281 93.789062 -163.398438 93.5 -162.609375 C 93.394531 -160.828125 92.273438 -157.707031 90.140625 -153.25 C 88.015625 -148.789062 85.117188 -143.390625 81.453125 -137.046875 C 77.785156 -130.703125 73.5 -123.710938 68.59375 -116.078125 C 63.6875 -108.453125 58.332031 -100.550781 52.53125 -92.375 C 46.738281 -84.207031 40.671875 -76.082031 34.328125 -68 C 27.992188 -59.925781 21.601562 -52.269531 15.15625 -45.03125 L 15.015625 -45.03125 C 14.222656 -43.445312 13.378906 -41.863281 12.484375 -40.28125 C 11.585938 -38.695312 10.742188 -37.0625 9.953125 -35.375 C 7.285156 -30.21875 4.785156 -24.941406 2.453125 -19.546875 C 0.117188 -14.148438 -1.984375 -8.625 -3.859375 -2.96875 C -4.847656 0.300781 -5.765625 3.617188 -6.609375 6.984375 C -7.453125 10.359375 -7.828125 13.828125 -7.734375 17.390625 C -7.734375 18.679688 -7.65625 19.945312 -7.5 21.1875 C -7.351562 22.425781 -7.035156 23.640625 -6.546875 24.828125 C -5.941406 26.109375 -5.367188 26.875 -4.828125 27.125 C -4.285156 27.375 -3.320312 27.398438 -1.9375 27.203125 C 1.132812 26.503906 4.0625 25.21875 6.84375 23.34375 C 10.3125 21.0625 13.53125 18.554688 16.5 15.828125 C 19.46875 13.109375 22.390625 10.359375 25.265625 7.578125 C 29.035156 4.109375 32.773438 0.617188 36.484375 -2.890625 C 40.203125 -6.410156 43.992188 -9.804688 47.859375 -13.078125 C 50.734375 -15.648438 53.78125 -17.953125 57 -19.984375 C 60.21875 -22.023438 63.515625 -23.882812 66.890625 -25.5625 Z M 26.015625 -65.25 C 25.316406 -63.96875 24.570312 -62.609375 23.78125 -61.171875 C 22.988281 -59.734375 22.195312 -58.316406 21.40625 -56.921875 C 29.03125 -66.046875 36.851562 -76.109375 44.875 -87.109375 C 52.90625 -98.109375 60.585938 -109.40625 67.921875 -121 C 73.378906 -129.519531 77.863281 -136.875 81.375 -143.0625 C 84.894531 -149.257812 87.5 -154.191406 89.1875 -157.859375 C 88.289062 -156.765625 87.394531 -155.644531 86.5 -154.5 C 85.613281 -153.363281 84.722656 -152.253906 83.828125 -151.171875 C 79.171875 -145.117188 74.488281 -139.09375 69.78125 -133.09375 C 65.070312 -127.101562 60.585938 -120.941406 56.328125 -114.609375 C 50.984375 -106.472656 45.78125 -98.316406 40.71875 -90.140625 C 35.664062 -81.972656 30.765625 -73.675781 26.015625 -65.25 Z M 26.015625 -65.25 "/></g></g></g><g fill="#996880" fill-opacity="1"><g transform="translate(689.204981, 904.809046)"><g><path d="M 11.890625 -35.828125 C 13.671875 -34.335938 13.921875 -32.503906 12.640625 -30.328125 C 11.347656 -28.140625 10.007812 -26.03125 8.625 -24 C 7.238281 -21.96875 5.847656 -19.816406 4.453125 -17.546875 C 1.484375 -12.585938 -1.039062 -7.457031 -3.125 -2.15625 C -5.207031 3.144531 -6.546875 8.71875 -7.140625 14.5625 C -7.234375 16.144531 -7.28125 17.703125 -7.28125 19.234375 C -7.28125 20.773438 -7.082031 22.34375 -6.6875 23.9375 C -6.394531 25.21875 -5.972656 26.054688 -5.421875 26.453125 C -4.878906 26.847656 -3.960938 27 -2.671875 26.90625 C -0.890625 26.800781 0.71875 26.351562 2.15625 25.5625 C 3.59375 24.769531 5.003906 23.878906 6.390625 22.890625 C 8.867188 21.203125 11.097656 19.289062 13.078125 17.15625 C 15.054688 15.03125 17.085938 12.925781 19.171875 10.84375 C 22.835938 6.976562 26.628906 3.289062 30.546875 -0.21875 C 34.460938 -3.738281 38.695312 -6.882812 43.25 -9.65625 C 46.425781 -11.644531 49.671875 -13.40625 52.984375 -14.9375 C 56.304688 -16.476562 59.601562 -18.039062 62.875 -19.625 C 64.5625 -20.414062 66.242188 -21.207031 67.921875 -22 C 69.609375 -22.789062 71.296875 -23.535156 72.984375 -24.234375 C 73.472656 -24.429688 73.941406 -24.628906 74.390625 -24.828125 C 74.835938 -25.023438 75.359375 -25.070312 75.953125 -24.96875 C 76.742188 -24.96875 77.140625 -24.671875 77.140625 -24.078125 C 77.242188 -23.585938 76.898438 -23.242188 76.109375 -23.046875 C 72.835938 -21.847656 69.6875 -20.476562 66.65625 -18.9375 C 63.632812 -17.40625 60.539062 -15.898438 57.375 -14.421875 C 51.925781 -11.742188 46.875 -8.570312 42.21875 -4.90625 C 37.5625 -1.238281 33.148438 2.773438 28.984375 7.140625 C 25.617188 10.703125 22.203125 14.265625 18.734375 17.828125 C 15.265625 21.398438 11.644531 24.769531 7.875 27.9375 C 7.476562 28.332031 7.054688 28.726562 6.609375 29.125 C 6.171875 29.53125 5.703125 29.878906 5.203125 30.171875 C -0.148438 33.546875 -4.859375 32.851562 -8.921875 28.09375 C -9.910156 26.707031 -10.75 25.269531 -11.4375 23.78125 C -12.132812 22.289062 -12.679688 20.753906 -13.078125 19.171875 C -13.972656 15.109375 -14.125 11.097656 -13.53125 7.140625 C -12.738281 -0.585938 -10.726562 -7.769531 -7.5 -14.40625 C -4.28125 -21.050781 -0.394531 -27.394531 4.15625 -33.4375 C 4.550781 -33.832031 4.921875 -34.203125 5.265625 -34.546875 C 5.617188 -34.898438 5.992188 -35.273438 6.390625 -35.671875 C 8.171875 -37.359375 10.003906 -37.410156 11.890625 -35.828125 Z M 18.734375 -43.109375 C 17.742188 -43.503906 16.828125 -44.070312 15.984375 -44.8125 C 15.140625 -45.5625 14.519531 -46.476562 14.125 -47.5625 C 13.925781 -48.257812 13.972656 -48.804688 14.265625 -49.203125 C 14.566406 -49.597656 15.0625 -49.742188 15.75 -49.640625 C 17.039062 -49.546875 18.207031 -49.003906 19.25 -48.015625 C 20.289062 -47.023438 20.8125 -45.984375 20.8125 -44.890625 C 20.90625 -44.191406 20.753906 -43.671875 20.359375 -43.328125 C 19.960938 -42.984375 19.421875 -42.910156 18.734375 -43.109375 Z M 18.734375 -43.109375 "/></g></g></g><g fill="#996880" fill-opacity="1"><g transform="translate(764.262561, 904.809046)"><g><path d="M 28.53125 6.09375 C 21.894531 8.570312 16.269531 8.941406 11.65625 7.203125 C 7.050781 5.472656 2.914062 1.632812 -0.75 -4.3125 C -4.414062 -10.457031 -5.007812 -16.898438 -2.53125 -23.640625 C -0.445312 -29.179688 2.648438 -33.660156 6.765625 -37.078125 C 10.878906 -40.503906 15.707031 -43.007812 21.25 -44.59375 C 23.4375 -45.28125 25.492188 -45.328125 27.421875 -44.734375 C 29.359375 -44.140625 31.21875 -43.203125 33 -41.921875 C 35.28125 -40.234375 35.773438 -38.101562 34.484375 -35.53125 C 33.984375 -34.53125 33.4375 -33.734375 32.84375 -33.140625 C 30.664062 -31.066406 28.363281 -29.1875 25.9375 -27.5 C 23.507812 -25.8125 20.859375 -24.472656 17.984375 -23.484375 C 15.109375 -22.585938 12.285156 -22.488281 9.515625 -23.1875 C 8.523438 -23.488281 7.753906 -23.4375 7.203125 -23.03125 C 6.660156 -22.632812 6.191406 -22.039062 5.796875 -21.25 C 3.910156 -17.1875 3.140625 -13.25 3.484375 -9.4375 C 3.835938 -5.625 5.398438 -1.882812 8.171875 1.78125 C 9.359375 3.164062 10.71875 4.082031 12.25 4.53125 C 13.789062 4.976562 15.40625 5.148438 17.09375 5.046875 C 19.46875 4.847656 21.742188 4.425781 23.921875 3.78125 C 26.109375 3.144531 28.242188 2.332031 30.328125 1.34375 C 32.203125 0.445312 34.875 -0.988281 38.34375 -2.96875 C 41.8125 -4.957031 45.828125 -7.1875 50.390625 -9.65625 C 54.953125 -12.132812 59.804688 -14.585938 64.953125 -17.015625 C 70.109375 -19.441406 75.3125 -21.546875 80.5625 -23.328125 C 85.8125 -25.117188 90.863281 -26.257812 95.71875 -26.75 C 96.3125 -26.75 96.929688 -26.675781 97.578125 -26.53125 C 98.222656 -26.382812 98.742188 -25.816406 99.140625 -24.828125 C 92.203125 -23.929688 85.289062 -22.070312 78.40625 -19.25 C 71.519531 -16.425781 64.929688 -13.300781 58.640625 -9.875 C 52.347656 -6.457031 46.625 -3.265625 41.46875 -0.296875 C 36.3125 2.671875 32 4.800781 28.53125 6.09375 Z M 28.234375 -38.9375 C 26.453125 -39.039062 24.347656 -38.519531 21.921875 -37.375 C 19.492188 -36.238281 17.238281 -34.828125 15.15625 -33.140625 C 13.082031 -31.460938 11.644531 -29.726562 10.84375 -27.9375 C 12.832031 -27.738281 15.0625 -28.1875 17.53125 -29.28125 C 20.007812 -30.375 22.265625 -31.8125 24.296875 -33.59375 C 26.328125 -35.375 27.640625 -37.15625 28.234375 -38.9375 Z M 28.234375 -38.9375 "/></g></g></g><g fill="#996880" fill-opacity="1"><g transform="translate(861.168604, 904.809046)"><g><path d="M 77.296875 -23.640625 C 68.273438 -18.378906 59.578125 -12.550781 51.203125 -6.15625 C 42.828125 0.226562 34.378906 6.394531 25.859375 12.34375 C 23.984375 13.625 22.023438 14.882812 19.984375 16.125 C 17.953125 17.363281 15.898438 18.53125 13.828125 19.625 C 9.859375 21.5 6.164062 22.085938 2.75 21.390625 C -0.664062 20.703125 -3.363281 18.945312 -5.34375 16.125 C -7.332031 13.300781 -8.273438 9.707031 -8.171875 5.34375 C -7.878906 -2.675781 -6.816406 -10.550781 -4.984375 -18.28125 C -3.148438 -26.007812 -0.695312 -33.539062 2.375 -40.875 C 7.726562 -53.957031 13.945312 -66.59375 21.03125 -78.78125 C 28.113281 -90.96875 35.421875 -103.007812 42.953125 -114.90625 C 45.140625 -118.375 47.320312 -121.816406 49.5 -125.234375 C 51.675781 -128.648438 53.851562 -132.039062 56.03125 -135.40625 C 56.332031 -136 56.628906 -136.566406 56.921875 -137.109375 C 57.222656 -137.660156 56.679688 -138.035156 55.296875 -138.234375 C 41.617188 -140.804688 27.914062 -142.539062 14.1875 -143.4375 C 0.46875 -144.332031 -13.328125 -143.6875 -27.203125 -141.5 C -29.878906 -141.101562 -32.53125 -140.535156 -35.15625 -139.796875 C -37.78125 -139.054688 -40.378906 -138.238281 -42.953125 -137.34375 C -44.835938 -136.75 -46.617188 -136.003906 -48.296875 -135.109375 C -49.984375 -134.222656 -51.523438 -133.085938 -52.921875 -131.703125 C -53.210938 -131.398438 -53.53125 -131.097656 -53.875 -130.796875 C -54.226562 -130.503906 -54.351562 -130.257812 -54.25 -130.0625 C -53.957031 -128.375 -54.179688 -127.578125 -54.921875 -127.671875 C -55.660156 -127.773438 -56.429688 -127.925781 -57.234375 -128.125 C -60.203125 -129.113281 -61.039062 -130.703125 -59.75 -132.890625 C -58.957031 -134.566406 -57.914062 -135.875 -56.625 -136.8125 C -55.34375 -137.757812 -53.957031 -138.628906 -52.46875 -139.421875 C -48.207031 -141.597656 -43.796875 -143.253906 -39.234375 -144.390625 C -34.679688 -145.535156 -30.078125 -146.40625 -25.421875 -147 C -15.109375 -148.394531 -4.871094 -148.84375 5.28125 -148.34375 C 15.4375 -147.84375 25.617188 -146.753906 35.828125 -145.078125 C 39.296875 -144.484375 42.785156 -143.863281 46.296875 -143.21875 C 49.816406 -142.570312 53.359375 -141.851562 56.921875 -141.0625 C 58.609375 -140.757812 59.898438 -141.300781 60.796875 -142.6875 C 62.484375 -145.269531 64.21875 -147.796875 66 -150.265625 C 67.78125 -152.742188 69.613281 -155.175781 71.5 -157.5625 C 71.988281 -158.15625 72.53125 -158.722656 73.125 -159.265625 C 73.71875 -159.816406 74.460938 -160.140625 75.359375 -160.234375 C 76.253906 -160.335938 77.117188 -160.265625 77.953125 -160.015625 C 78.796875 -159.765625 79.46875 -159.289062 79.96875 -158.59375 C 80.5625 -157.90625 80.660156 -157.210938 80.265625 -156.515625 C 79.867188 -155.828125 79.472656 -155.1875 79.078125 -154.59375 C 77.492188 -152.3125 75.90625 -150.03125 74.3125 -147.75 C 72.726562 -145.46875 71.144531 -143.1875 69.5625 -140.90625 C 69.070312 -140.21875 68.828125 -139.648438 68.828125 -139.203125 C 68.828125 -138.753906 69.367188 -138.382812 70.453125 -138.09375 C 80.765625 -136.101562 91.097656 -134.164062 101.453125 -132.28125 C 111.804688 -130.40625 122.285156 -129.269531 132.890625 -128.875 C 139.023438 -128.675781 145.191406 -128.75 151.390625 -129.09375 C 157.585938 -129.4375 163.753906 -130.101562 169.890625 -131.09375 C 171.578125 -131.289062 173.1875 -131.6875 174.71875 -132.28125 C 176.257812 -132.882812 177.820312 -133.382812 179.40625 -133.78125 C 180.5 -134.175781 181.441406 -135.015625 182.234375 -136.296875 C 182.929688 -137.390625 184.019531 -138.1875 185.5 -138.6875 C 185.894531 -138.882812 186.316406 -138.984375 186.765625 -138.984375 C 187.210938 -138.984375 187.582031 -138.785156 187.875 -138.390625 C 188.269531 -137.890625 188.269531 -137.515625 187.875 -137.265625 C 187.476562 -137.015625 187.179688 -136.691406 186.984375 -136.296875 C 185.398438 -133.828125 183.46875 -131.972656 181.1875 -130.734375 C 178.914062 -129.492188 176.488281 -128.648438 173.90625 -128.203125 C 171.332031 -127.753906 168.757812 -127.332031 166.1875 -126.9375 C 153.894531 -125.050781 141.675781 -124.703125 129.53125 -125.890625 C 117.394531 -127.085938 105.285156 -128.773438 93.203125 -130.953125 C 89.234375 -131.742188 85.21875 -132.535156 81.15625 -133.328125 C 77.09375 -134.117188 73.03125 -134.910156 68.96875 -135.703125 C 68.175781 -135.898438 67.457031 -135.898438 66.8125 -135.703125 C 66.164062 -135.503906 65.546875 -135.007812 64.953125 -134.21875 C 53.265625 -116.78125 42.414062 -98.921875 32.40625 -80.640625 C 22.394531 -62.359375 13.375 -43.457031 5.34375 -23.9375 C 3.363281 -19.070312 1.78125 -14.015625 0.59375 -8.765625 C -0.589844 -3.515625 -1.484375 1.785156 -2.078125 7.140625 C -2.179688 8.617188 -2.179688 10.101562 -2.078125 11.59375 C -1.679688 15.0625 -0.394531 17.4375 1.78125 18.71875 C 3.957031 20.007812 6.632812 19.960938 9.8125 18.578125 C 14.363281 16.492188 18.597656 13.96875 22.515625 11 C 26.429688 8.03125 30.320312 5.054688 34.1875 2.078125 C 39.738281 -2.074219 45.3125 -6.085938 50.90625 -9.953125 C 56.507812 -13.816406 62.179688 -17.582031 67.921875 -21.25 C 68.816406 -21.84375 69.734375 -22.390625 70.671875 -22.890625 C 71.617188 -23.390625 72.585938 -23.835938 73.578125 -24.234375 C 74.171875 -24.429688 74.765625 -24.578125 75.359375 -24.671875 C 75.953125 -24.773438 76.597656 -24.429688 77.296875 -23.640625 Z M 77.296875 -23.640625 "/></g></g></g><g fill="#996880" fill-opacity="1"><g transform="translate(934.591282, 904.809046)"><g><path d="M 10.40625 -4.75 C 10.300781 -5.25 10.25 -5.820312 10.25 -6.46875 C 10.25 -7.113281 10.101562 -7.78125 9.8125 -8.46875 C 8.914062 -7.582031 8.046875 -6.738281 7.203125 -5.9375 C 6.367188 -5.144531 5.550781 -4.351562 4.75 -3.5625 C 3.664062 -2.375 2.378906 -1.382812 0.890625 -0.59375 C -0.992188 0.300781 -2.898438 0.253906 -4.828125 -0.734375 C -6.765625 -1.734375 -7.734375 -3.269531 -7.734375 -5.34375 C -7.828125 -11.488281 -6.632812 -17.039062 -4.15625 -22 C -1.6875 -26.957031 2.222656 -31.117188 7.578125 -34.484375 C 9.859375 -35.867188 12.113281 -36.488281 14.34375 -36.34375 C 16.570312 -36.195312 18.773438 -35.476562 20.953125 -34.1875 C 21.546875 -33.789062 22.113281 -33.441406 22.65625 -33.140625 C 23.207031 -32.847656 23.878906 -32.847656 24.671875 -33.140625 C 25.171875 -33.335938 25.640625 -33.3125 26.078125 -33.0625 C 26.523438 -32.820312 26.945312 -32.601562 27.34375 -32.40625 C 28.9375 -31.707031 29.832031 -30.988281 30.03125 -30.25 C 30.226562 -29.507812 29.929688 -28.34375 29.140625 -26.75 C 28.046875 -24.875 26.90625 -22.96875 25.71875 -21.03125 C 24.53125 -19.101562 23.535156 -17.097656 22.734375 -15.015625 C 20.660156 -9.859375 19.671875 -4.703125 19.765625 0.453125 C 19.765625 2.828125 20.210938 5.054688 21.109375 7.140625 C 21.898438 9.015625 23.4375 10.050781 25.71875 10.25 C 28 10.25 30.128906 9.898438 32.109375 9.203125 C 34.085938 8.515625 36.019531 7.675781 37.90625 6.6875 C 40.382812 5.5 43.601562 3.738281 47.5625 1.40625 C 51.53125 -0.914062 55.84375 -3.488281 60.5 -6.3125 C 65.15625 -9.132812 69.835938 -11.910156 74.546875 -14.640625 C 79.253906 -17.367188 83.640625 -19.796875 87.703125 -21.921875 C 91.765625 -24.054688 95.226562 -25.566406 98.09375 -26.453125 C 100.96875 -27.347656 102.804688 -27.300781 103.609375 -26.3125 C 103.609375 -26.3125 103.707031 -25.960938 103.90625 -25.265625 C 100.238281 -24.867188 96.097656 -23.554688 91.484375 -21.328125 C 86.878906 -19.097656 82.070312 -16.394531 77.0625 -13.21875 C 72.0625 -10.050781 67.082031 -6.78125 62.125 -3.40625 C 57.175781 -0.0390625 52.492188 3.050781 48.078125 5.875 C 43.671875 8.695312 39.734375 10.851562 36.265625 12.34375 C 32.003906 14.125 27.644531 14.421875 23.1875 13.234375 C 18.726562 12.046875 15.210938 9.070312 12.640625 4.3125 C 11.941406 2.925781 11.441406 1.46875 11.140625 -0.0625 C 10.847656 -1.601562 10.601562 -3.164062 10.40625 -4.75 Z M 2.078125 -6.546875 C 5.546875 -9.515625 8.519531 -12.851562 11 -16.5625 C 13.476562 -20.28125 15.90625 -24.023438 18.28125 -27.796875 C 18.675781 -28.390625 18.773438 -28.910156 18.578125 -29.359375 C 18.378906 -29.804688 18.132812 -30.226562 17.84375 -30.625 C 17.539062 -31.113281 17.164062 -31.359375 16.71875 -31.359375 C 16.269531 -31.359375 15.847656 -31.257812 15.453125 -31.0625 C 14.859375 -30.664062 14.238281 -30.316406 13.59375 -30.015625 C 12.957031 -29.722656 12.390625 -29.332031 11.890625 -28.84375 C 9.117188 -26.457031 6.738281 -23.828125 4.75 -20.953125 C 2.769531 -18.078125 1.085938 -14.910156 -0.296875 -11.453125 C -0.691406 -10.453125 -1.035156 -9.332031 -1.328125 -8.09375 C -1.628906 -6.863281 -1.78125 -5.40625 -1.78125 -3.71875 C -0.988281 -4.3125 -0.269531 -4.832031 0.375 -5.28125 C 1.019531 -5.726562 1.585938 -6.148438 2.078125 -6.546875 Z M 2.078125 -6.546875 "/></g></g></g><g fill="#996880" fill-opacity="1"><g transform="translate(1034.917917, 904.809046)"><g/></g></g><g transform="matrix(1, 0, 0, 1, 474, 977)"><g clip-path="url(#b66ef3aad3)"><g clip-path="url(#1860021df8)"><path fill="#ffffff" d="M 39.304688 0.871094 L 512.679688 0.871094 C 522.820312 0.871094 532.546875 4.898438 539.71875 12.070312 C 546.890625 19.242188 550.917969 28.964844 550.917969 39.109375 C 550.917969 49.25 546.890625 58.976562 539.71875 66.148438 C 532.546875 73.316406 522.820312 77.347656 512.679688 77.347656 L 39.304688 77.347656 C 18.183594 77.347656 1.066406 60.226562 1.066406 39.109375 C 1.066406 17.988281 18.183594 0.871094 39.304688 0.871094 Z M 39.304688 0.871094 " fill-opacity="1" fill-rule="nonzero"/></g><g fill="#4c243b" fill-opacity="1"><g transform="translate(22.919658, 55.553194)"><g><path d="M 17.296875 0.46875 C 12.609375 0.46875 8.984375 -1.035156 6.421875 -4.046875 C 3.867188 -7.054688 2.59375 -11.285156 2.59375 -16.734375 C 2.59375 -22.140625 3.851562 -26.304688 6.375 -29.234375 C 8.90625 -32.171875 12.519531 -33.640625 17.21875 -33.640625 C 20.519531 -33.640625 23.191406 -33.023438 25.234375 -31.796875 C 27.285156 -30.578125 28.722656 -28.707031 29.546875 -26.1875 L 25.640625 -25.0625 C 24.984375 -26.875 23.960938 -28.207031 22.578125 -29.0625 C 21.191406 -29.925781 19.367188 -30.359375 17.109375 -30.359375 C 13.734375 -30.359375 11.140625 -29.195312 9.328125 -26.875 C 7.515625 -24.5625 6.609375 -21.179688 6.609375 -16.734375 C 6.609375 -12.398438 7.554688 -8.988281 9.453125 -6.5 C 11.359375 -4.019531 14.039062 -2.78125 17.5 -2.78125 C 20.894531 -2.78125 23.6875 -3.820312 25.875 -5.90625 L 25.875 -13.21875 L 17.90625 -13.21875 L 17.90625 -16.375 L 29.546875 -16.375 L 29.546875 -4.609375 C 28.265625 -3.085938 26.523438 -1.859375 24.328125 -0.921875 C 22.128906 0.00390625 19.785156 0.46875 17.296875 0.46875 Z M 17.296875 0.46875 "/></g></g></g><g fill="#4c243b" fill-opacity="1"><g transform="translate(61.125077, 55.553194)"><g><path d="M 22.421875 -23.6875 C 22.421875 -25.75 21.726562 -27.335938 20.34375 -28.453125 C 18.96875 -29.566406 17.007812 -30.125 14.46875 -30.125 L 8.40625 -30.125 L 8.40625 -17.03125 L 14.65625 -17.03125 C 17.101562 -17.03125 19.007812 -17.625 20.375 -18.8125 C 21.738281 -20 22.421875 -21.625 22.421875 -23.6875 Z M 26.40625 -23.734375 C 26.40625 -21.304688 25.679688 -19.269531 24.234375 -17.625 C 22.785156 -15.976562 20.753906 -14.9375 18.140625 -14.5 L 27.640625 0 L 23.03125 0 L 14.234375 -14.046875 L 8.40625 -14.046875 L 8.40625 0 L 4.453125 0 L 4.453125 -33.15625 L 14.84375 -33.15625 C 18.53125 -33.15625 21.378906 -32.320312 23.390625 -30.65625 C 25.398438 -29 26.40625 -26.691406 26.40625 -23.734375 Z M 26.40625 -23.734375 "/></g></g></g><g fill="#4c243b" fill-opacity="1"><g transform="translate(95.096459, 55.553194)"><g><path d="M 17.90625 -33.15625 L 30.609375 0 L 26.546875 0 L 22.78125 -9.953125 L 8.328125 -9.953125 L 4.59375 0 L 0.46875 0 L 13.25 -33.15625 Z M 15.578125 -30.015625 C 15.265625 -29.066406 14.96875 -28.179688 14.6875 -27.359375 C 14.40625 -26.546875 14.050781 -25.566406 13.625 -24.421875 L 9.359375 -13.109375 L 21.765625 -13.109375 L 17.5 -24.40625 C 17.207031 -25.164062 16.566406 -27.035156 15.578125 -30.015625 Z M 15.578125 -30.015625 "/></g></g></g><g fill="#4c243b" fill-opacity="1"><g transform="translate(131.325994, 55.553194)"><g><path d="M 25.03125 -23.265625 C 25.03125 -21.273438 24.578125 -19.503906 23.671875 -17.953125 C 22.773438 -16.410156 21.457031 -15.210938 19.71875 -14.359375 C 17.988281 -13.503906 15.988281 -13.078125 13.71875 -13.078125 L 8.421875 -13.078125 L 8.421875 0 L 4.46875 0 L 4.46875 -33.15625 L 13.453125 -33.15625 C 17.160156 -33.15625 20.015625 -32.273438 22.015625 -30.515625 C 24.023438 -28.753906 25.03125 -26.335938 25.03125 -23.265625 Z M 21.03125 -23.21875 C 21.03125 -25.40625 20.359375 -27.101562 19.015625 -28.3125 C 17.679688 -29.519531 15.671875 -30.125 12.984375 -30.125 L 8.421875 -30.125 L 8.421875 -16.078125 L 13.171875 -16.078125 C 15.679688 -16.078125 17.617188 -16.703125 18.984375 -17.953125 C 20.347656 -19.203125 21.03125 -20.957031 21.03125 -23.21875 Z M 21.03125 -23.21875 "/></g></g></g><g fill="#4c243b" fill-opacity="1"><g transform="translate(163.462627, 55.553194)"><g><path d="M 4.453125 0 L 4.453125 -33.15625 L 8.40625 -33.15625 L 8.40625 -18.96875 L 25.90625 -18.96875 L 25.90625 -33.15625 L 29.765625 -33.15625 L 29.765625 0 L 25.90625 0 L 25.90625 -15.59375 L 8.40625 -15.59375 L 8.40625 0 Z M 4.453125 0 "/></g></g></g><g fill="#4c243b" fill-opacity="1"><g transform="translate(202.820645, 55.553194)"><g><path d="M 8.375 0 L 4.421875 0 L 4.421875 -33.15625 L 8.375 -33.15625 Z M 8.375 0 "/></g></g></g><g fill="#4c243b" fill-opacity="1"><g transform="translate(220.796777, 55.553194)"><g><path d="M 16.5 0.46875 C 12.164062 0.46875 8.765625 -1.054688 6.296875 -4.109375 C 3.828125 -7.171875 2.59375 -11.378906 2.59375 -16.734375 C 2.59375 -22.003906 3.816406 -26.140625 6.265625 -29.140625 C 8.722656 -32.140625 12.164062 -33.640625 16.59375 -33.640625 C 22.75 -33.640625 26.691406 -31.050781 28.421875 -25.875 L 24.796875 -24.5 C 24.171875 -26.550781 23.175781 -28.039062 21.8125 -28.96875 C 20.445312 -29.90625 18.707031 -30.375 16.59375 -30.375 C 13.445312 -30.375 10.992188 -29.171875 9.234375 -26.765625 C 7.484375 -24.367188 6.609375 -21.023438 6.609375 -16.734375 C 6.609375 -12.492188 7.492188 -9.109375 9.265625 -6.578125 C 11.035156 -4.046875 13.476562 -2.78125 16.59375 -2.78125 C 18.738281 -2.78125 20.550781 -3.335938 22.03125 -4.453125 C 23.519531 -5.566406 24.578125 -7.179688 25.203125 -9.296875 L 28.640625 -7.734375 C 26.597656 -2.265625 22.550781 0.46875 16.5 0.46875 Z M 16.5 0.46875 "/></g></g></g><g fill="#4c243b" fill-opacity="1"><g transform="translate(255.779624, 55.553194)"><g/></g></g><g fill="#4c243b" fill-opacity="1"><g transform="translate(274.132114, 55.553194)"><g><path d="M 31.203125 -16.921875 C 31.203125 -13.429688 30.570312 -10.410156 29.3125 -7.859375 C 28.0625 -5.304688 26.257812 -3.359375 23.90625 -2.015625 C 21.550781 -0.671875 18.820312 0 15.71875 0 L 4.46875 0 L 4.46875 -33.15625 L 14.890625 -33.15625 C 20.285156 -33.15625 24.351562 -31.796875 27.09375 -29.078125 C 29.832031 -26.367188 31.203125 -22.316406 31.203125 -16.921875 Z M 27.203125 -16.921875 C 27.203125 -21.296875 26.195312 -24.546875 24.1875 -26.671875 C 22.175781 -28.804688 19.046875 -29.875 14.796875 -29.875 L 8.421875 -29.875 L 8.421875 -3.265625 L 15.359375 -3.265625 C 19.128906 -3.265625 22.046875 -4.445312 24.109375 -6.8125 C 26.171875 -9.1875 27.203125 -12.554688 27.203125 -16.921875 Z M 27.203125 -16.921875 "/></g></g></g><g fill="#4c243b" fill-opacity="1"><g transform="translate(313.066728, 55.553194)"><g><path d="M 22.1875 0 L 4.453125 0 L 4.453125 -33.15625 L 21.21875 -33.15625 L 21.21875 -29.953125 L 8.40625 -29.953125 L 8.40625 -18.59375 L 19.78125 -18.59375 L 19.78125 -15.4375 L 8.40625 -15.4375 L 8.40625 -3.203125 L 22.1875 -3.203125 Z M 22.1875 0 "/></g></g></g><g fill="#4c243b" fill-opacity="1"><g transform="translate(342.592372, 55.553194)"><g><path d="M 23.921875 -9.0625 C 23.921875 -5.988281 22.96875 -3.628906 21.0625 -1.984375 C 19.164062 -0.347656 16.390625 0.46875 12.734375 0.46875 C 9.585938 0.46875 7.09375 -0.207031 5.25 -1.5625 C 3.414062 -2.914062 2.175781 -5.015625 1.53125 -7.859375 L 5.25 -8.59375 C 5.71875 -6.53125 6.570312 -5.023438 7.8125 -4.078125 C 9.0625 -3.128906 10.734375 -2.65625 12.828125 -2.65625 C 17.671875 -2.65625 20.09375 -4.703125 20.09375 -8.796875 C 20.09375 -9.972656 19.859375 -10.945312 19.390625 -11.71875 C 18.929688 -12.488281 18.234375 -13.144531 17.296875 -13.6875 C 16.367188 -14.226562 14.554688 -14.890625 11.859375 -15.671875 C 9.410156 -16.390625 7.582031 -17.15625 6.375 -17.96875 C 5.164062 -18.789062 4.25 -19.800781 3.625 -21 C 3.007812 -22.195312 2.703125 -23.628906 2.703125 -25.296875 C 2.703125 -27.878906 3.566406 -29.914062 5.296875 -31.40625 C 7.035156 -32.894531 9.4375 -33.640625 12.5 -33.640625 C 18.238281 -33.640625 21.796875 -31.273438 23.171875 -26.546875 L 19.53125 -25.546875 C 18.976562 -27.328125 18.132812 -28.613281 17 -29.40625 C 15.875 -30.195312 14.363281 -30.59375 12.46875 -30.59375 C 10.550781 -30.59375 9.078125 -30.144531 8.046875 -29.25 C 7.023438 -28.351562 6.515625 -27.070312 6.515625 -25.40625 C 6.515625 -24.289062 6.707031 -23.375 7.09375 -22.65625 C 7.476562 -21.9375 8.070312 -21.3125 8.875 -20.78125 C 9.675781 -20.257812 11.289062 -19.609375 13.71875 -18.828125 C 16.875 -17.804688 19.046875 -16.898438 20.234375 -16.109375 C 21.421875 -15.316406 22.332031 -14.359375 22.96875 -13.234375 C 23.601562 -12.109375 23.921875 -10.71875 23.921875 -9.0625 Z M 23.921875 -9.0625 "/></g></g></g><g fill="#4c243b" fill-opacity="1"><g transform="translate(373.341181, 55.553194)"><g><path d="M 8.375 0 L 4.421875 0 L 4.421875 -33.15625 L 8.375 -33.15625 Z M 8.375 0 "/></g></g></g><g fill="#4c243b" fill-opacity="1"><g transform="translate(391.317313, 55.553194)"><g><path d="M 17.296875 0.46875 C 12.609375 0.46875 8.984375 -1.035156 6.421875 -4.046875 C 3.867188 -7.054688 2.59375 -11.285156 2.59375 -16.734375 C 2.59375 -22.140625 3.851562 -26.304688 6.375 -29.234375 C 8.90625 -32.171875 12.519531 -33.640625 17.21875 -33.640625 C 20.519531 -33.640625 23.191406 -33.023438 25.234375 -31.796875 C 27.285156 -30.578125 28.722656 -28.707031 29.546875 -26.1875 L 25.640625 -25.0625 C 24.984375 -26.875 23.960938 -28.207031 22.578125 -29.0625 C 21.191406 -29.925781 19.367188 -30.359375 17.109375 -30.359375 C 13.734375 -30.359375 11.140625 -29.195312 9.328125 -26.875 C 7.515625 -24.5625 6.609375 -21.179688 6.609375 -16.734375 C 6.609375 -12.398438 7.554688 -8.988281 9.453125 -6.5 C 11.359375 -4.019531 14.039062 -2.78125 17.5 -2.78125 C 20.894531 -2.78125 23.6875 -3.820312 25.875 -5.90625 L 25.875 -13.21875 L 17.90625 -13.21875 L 17.90625 -16.375 L 29.546875 -16.375 L 29.546875 -4.609375 C 28.265625 -3.085938 26.523438 -1.859375 24.328125 -0.921875 C 22.128906 0.00390625 19.785156 0.46875 17.296875 0.46875 Z M 17.296875 0.46875 "/></g></g></g><g fill="#4c243b" fill-opacity="1"><g transform="translate(429.522754, 55.553194)"><g><path d="M 26.703125 0 L 7.96875 -28.59375 C 8.082031 -25.6875 8.140625 -23.675781 8.140625 -22.5625 L 8.140625 0 L 4.453125 0 L 4.453125 -33.15625 L 9.15625 -33.15625 L 28.0625 -4.375 C 27.925781 -6.664062 27.859375 -8.835938 27.859375 -10.890625 L 27.859375 -33.15625 L 31.59375 -33.15625 L 31.59375 0 Z M 26.703125 0 "/></g></g></g><g fill="#4c243b" fill-opacity="1"><g transform="translate(470.7155, 55.553194)"><g><path d="M 22.1875 0 L 4.453125 0 L 4.453125 -33.15625 L 21.21875 -33.15625 L 21.21875 -29.953125 L 8.40625 -29.953125 L 8.40625 -18.59375 L 19.78125 -18.59375 L 19.78125 -15.4375 L 8.40625 -15.4375 L 8.40625 -3.203125 L 22.1875 -3.203125 Z M 22.1875 0 "/></g></g></g><g fill="#4c243b" fill-opacity="1"><g transform="translate(500.241121, 55.553194)"><g><path d="M 22.421875 -23.6875 C 22.421875 -25.75 21.726562 -27.335938 20.34375 -28.453125 C 18.96875 -29.566406 17.007812 -30.125 14.46875 -30.125 L 8.40625 -30.125 L 8.40625 -17.03125 L 14.65625 -17.03125 C 17.101562 -17.03125 19.007812 -17.625 20.375 -18.8125 C 21.738281 -20 22.421875 -21.625 22.421875 -23.6875 Z M 26.40625 -23.734375 C 26.40625 -21.304688 25.679688 -19.269531 24.234375 -17.625 C 22.785156 -15.976562 20.753906 -14.9375 18.140625 -14.5 L 27.640625 0 L 23.03125 0 L 14.234375 -14.046875 L 8.40625 -14.046875 L 8.40625 0 L 4.453125 0 L 4.453125 -33.15625 L 14.84375 -33.15625 C 18.53125 -33.15625 21.378906 -32.320312 23.390625 -30.65625 C 25.398438 -29 26.40625 -26.691406 26.40625 -23.734375 Z M 26.40625 -23.734375 "/></g></g></g></g></g></svg>